<?xml version="1.0" standalone="no"?>
<!DOCTYPE svg PUBLIC "-//W3C//DTD SVG 20010904//EN"
 "http://www.w3.org/TR/2001/REC-SVG-20010904/DTD/svg10.dtd">
<svg version="1.0" xmlns="http://www.w3.org/2000/svg"
 width="1280.000000pt" height="1280.000000pt" viewBox="0 0 1280.000000 1280.000000"
 preserveAspectRatio="xMidYMid meet">

<g transform="translate(0.000000,1280.000000) scale(0.100000,-0.100000)"
fill="#000000" stroke="none">
<path d="M5962 12683 c-50 -24 -62 -57 -62 -172 0 -77 5 -113 20 -153 11 -29
20 -73 20 -98 0 -58 -24 -149 -45 -169 -15 -15 -17 -14 -26 1 -21 37 -157 51
-227 23 -28 -11 -47 -30 -70 -68 -35 -57 -67 -81 -125 -91 -21 -4 -57 -15 -82
-26 -94 -40 -1160 -58 -1972 -32 -204 6 -409 16 -455 21 -46 6 -144 15 -218
22 -260 21 -296 26 -432 63 -208 55 -265 49 -368 -39 -36 -30 -97 -79 -136
-109 -84 -65 -123 -108 -131 -146 -3 -15 -14 -32 -24 -36 -11 -5 -58 -43 -105
-84 -151 -132 -290 -282 -381 -414 -31 -44 -79 -112 -107 -150 -69 -93 -80
-113 -187 -321 -127 -248 -122 -239 -194 -340 -36 -49 -81 -115 -102 -145 -20
-30 -53 -75 -74 -100 -20 -25 -58 -79 -83 -120 -26 -41 -75 -116 -109 -166
-34 -51 -88 -133 -121 -183 l-59 -92 0 -92 c-1 -114 14 -148 80 -180 35 -17
49 -31 59 -57 9 -26 13 -171 13 -580 1 -506 3 -548 20 -585 10 -22 24 -47 32
-55 15 -16 226 -283 366 -465 l52 -67 -18 -37 c-10 -20 -37 -90 -60 -157 l-42
-120 -60 -2 c-102 -3 -144 -34 -244 -181 -86 -126 -143 -266 -196 -481 -15
-61 -11 -417 6 -500 41 -202 71 -281 188 -490 35 -63 77 -137 92 -165 30 -54
39 -69 138 -221 36 -56 74 -117 84 -135 10 -19 43 -69 73 -113 30 -43 66 -95
80 -115 13 -20 50 -73 82 -118 32 -44 58 -85 58 -91 0 -5 7 -15 16 -23 8 -7
24 -29 35 -48 11 -20 37 -61 60 -91 22 -30 51 -71 64 -90 13 -19 40 -57 60
-85 19 -27 57 -81 83 -120 115 -169 147 -213 186 -259 22 -27 49 -63 60 -80
10 -17 33 -47 50 -67 17 -19 58 -73 91 -119 33 -46 82 -109 109 -139 26 -31
60 -74 75 -96 28 -43 120 -168 246 -333 62 -82 75 -106 64 -113 -8 -5 -17 -9
-20 -9 -13 0 -38 -78 -42 -132 -4 -41 -18 -81 -50 -145 -97 -189 -171 -406
-228 -668 -69 -319 -93 -477 -109 -730 -20 -304 19 -588 101 -743 82 -154 120
-182 246 -182 73 0 107 11 147 48 42 40 56 82 56 170 0 85 -16 143 -50 190
-37 50 -55 209 -41 371 12 152 63 383 92 420 11 13 24 42 29 65 22 85 79 173
129 200 15 8 93 52 175 100 82 47 157 86 167 86 20 0 144 64 227 118 32 21 94
53 138 71 43 19 129 55 189 81 61 26 142 58 180 70 39 13 108 42 155 65 47 23
121 57 165 74 44 18 114 50 155 73 86 46 196 91 290 120 36 10 71 21 78 23 21
7 13 -11 -10 -22 -40 -18 -161 -138 -228 -226 -43 -56 -74 -87 -90 -91 -33 -7
-77 -46 -89 -79 -12 -30 -27 -178 -36 -353 -8 -147 5 -231 45 -294 16 -25 36
-64 44 -85 13 -37 56 -119 116 -220 114 -192 581 -711 821 -912 46 -39 104
-91 129 -118 25 -26 60 -54 78 -61 35 -15 181 -21 217 -8 46 15 151 68 170 85
11 10 45 29 75 44 30 14 75 36 100 49 25 13 69 31 98 41 31 10 78 37 110 64
52 43 153 97 352 188 41 19 85 43 96 54 12 11 50 27 85 35 47 11 74 24 99 48
34 33 105 76 124 76 5 0 40 18 78 40 66 38 71 39 98 25 16 -8 32 -20 35 -26
10 -16 109 -78 195 -122 114 -59 243 -134 265 -154 33 -30 178 -110 221 -122
58 -16 130 -13 241 9 54 12 121 25 148 30 239 42 668 163 881 248 l52 21 6
-27 c4 -15 9 -110 12 -212 7 -305 9 -332 29 -373 25 -53 58 -67 157 -67 103 0
137 18 167 86 47 106 54 331 20 652 -19 179 -20 204 -7 220 40 47 78 196 78
306 0 68 -28 187 -52 222 -36 52 -66 64 -160 64 l-85 0 -46 98 c-54 112 -144
272 -173 304 -11 13 -60 82 -107 155 -71 106 -119 164 -257 306 -94 96 -170
181 -170 189 0 32 -33 58 -98 78 -41 11 -78 30 -92 45 -13 14 -27 25 -31 25
-4 0 -25 12 -47 26 -50 32 -109 129 -146 238 -31 90 -29 124 11 212 19 43 25
71 25 132 0 93 -18 144 -61 166 -36 19 -179 22 -246 5 -73 -18 -90 -9 -105 58
-17 78 -15 400 4 568 8 72 22 222 31 335 18 238 40 432 60 545 8 44 15 96 16
115 0 19 10 87 23 150 17 85 24 109 30 92 4 -12 26 -32 49 -43 34 -18 54 -21
124 -17 96 5 121 19 159 86 13 23 24 46 24 51 0 13 59 108 108 173 42 57 106
111 192 161 60 34 232 74 351 81 227 13 279 52 279 211 0 109 -40 154 -172
194 -185 56 -216 67 -283 99 -150 73 -367 244 -348 275 23 39 163 248 188 282
119 160 459 515 625 652 94 77 116 94 190 143 21 14 58 40 83 58 54 38 220
122 292 147 29 10 94 20 154 23 98 4 103 4 98 -14 -3 -11 -15 -55 -28 -99 -12
-44 -37 -121 -55 -172 -19 -51 -34 -98 -34 -105 0 -13 -31 -112 -116 -363 -24
-71 -48 -155 -55 -185 -15 -71 -68 -190 -84 -190 -7 0 -26 -15 -42 -33 -28
-32 -37 -55 -98 -250 -22 -71 -32 -88 -50 -93 -37 -9 -65 -47 -82 -110 -8 -33
-19 -64 -23 -69 -5 -6 -14 -33 -21 -60 -20 -80 -38 -115 -64 -125 -30 -11 -61
-59 -70 -107 -10 -54 -70 -179 -109 -226 -19 -24 -42 -55 -49 -71 -8 -15 -30
-35 -48 -44 -28 -14 -39 -30 -65 -95 -23 -60 -38 -82 -62 -97 -34 -21 -55 -57
-72 -125 -10 -44 -42 -85 -64 -85 -13 0 -42 -52 -59 -102 -4 -10 -12 -18 -19
-18 -23 0 -76 -59 -83 -92 -13 -60 -56 -145 -79 -156 -12 -5 -36 -35 -52 -65
-15 -31 -38 -60 -50 -65 -11 -6 -37 -44 -58 -87 -21 -42 -49 -83 -63 -92 -35
-23 -61 -82 -74 -166 -10 -65 -8 -94 14 -238 14 -90 31 -211 37 -269 34 -305
72 -540 115 -700 9 -30 20 -77 25 -103 13 -63 112 -363 133 -403 19 -37 95
-103 153 -132 23 -12 88 -33 145 -47 129 -33 232 -73 419 -163 80 -38 156 -73
170 -77 14 -4 63 -27 110 -50 47 -23 117 -52 155 -65 152 -50 408 -162 555
-245 52 -29 124 -65 160 -80 85 -35 168 -78 241 -126 32 -22 79 -50 104 -64
26 -13 54 -35 64 -47 35 -46 80 -134 86 -171 4 -21 18 -53 31 -73 13 -19 24
-40 24 -47 0 -7 14 -66 30 -132 26 -100 32 -147 37 -280 6 -192 -5 -286 -47
-372 -71 -147 -56 -321 33 -387 23 -17 46 -22 119 -25 113 -4 150 11 196 79
84 122 116 221 154 475 14 94 3 515 -17 675 -16 122 -94 535 -120 635 -48 185
-123 397 -189 537 -29 61 -46 112 -46 135 -1 68 -17 117 -51 146 l-31 29 63
91 c35 51 81 116 103 146 23 29 68 93 101 141 33 47 85 120 115 160 30 40 81
112 114 159 32 47 75 106 96 131 20 25 42 56 49 69 7 13 34 50 59 83 26 33 61
80 77 104 17 24 95 132 175 240 145 196 243 333 354 494 33 47 65 90 71 95 7
6 54 73 105 150 51 77 116 174 145 215 28 41 55 83 58 93 4 10 22 42 40 70
115 178 206 359 230 457 9 36 21 108 27 160 7 52 16 122 21 155 13 91 11 153
-10 251 -52 245 -101 365 -206 509 -95 130 -130 156 -223 163 l-69 4 -17 47
c-10 25 -28 73 -41 106 -12 33 -36 88 -54 122 -17 34 -31 68 -31 74 0 6 20 37
45 68 25 31 81 101 126 156 44 55 111 141 149 190 38 50 89 116 114 147 29 38
48 74 55 108 7 33 11 233 11 570 0 600 0 600 68 626 55 21 79 58 87 138 9 92
-5 144 -67 238 -30 46 -112 171 -183 278 -70 107 -141 209 -157 226 -15 16
-43 53 -61 81 -66 104 -148 223 -158 229 -6 3 -37 59 -69 123 -115 232 -165
319 -274 471 -157 221 -336 420 -503 559 -46 38 -53 49 -53 80 0 20 -7 46 -15
58 -9 12 -77 73 -153 135 -75 62 -139 116 -142 120 -22 30 -197 39 -272 14
-135 -45 -210 -57 -493 -82 -484 -42 -780 -53 -1480 -53 -708 0 -1041 17
-1195 61 -84 24 -86 26 -130 85 -25 34 -56 67 -69 75 -15 8 -58 13 -112 13
-83 0 -89 -1 -118 -29 -17 -17 -31 -38 -31 -48 0 -10 -5 -18 -11 -18 -15 0
-33 20 -69 79 -44 70 -51 151 -21 236 15 42 21 83 21 143 0 143 -47 192 -183
192 -84 0 -124 -21 -164 -89 -65 -110 -78 -167 -78 -356 0 -195 8 -235 81
-392 43 -92 44 -98 34 -145 -5 -27 -10 -84 -10 -128 l0 -78 -38 -7 c-21 -3
-52 -14 -68 -24 -28 -17 -30 -17 -60 1 -18 10 -54 21 -82 25 l-49 5 -6 97 c-3
53 -11 111 -17 129 -11 29 -9 40 13 90 63 142 97 288 97 419 0 192 -71 404
-150 445 -46 24 -190 25 -238 1z m222 -54 c57 -44 97 -169 111 -344 12 -141
-26 -315 -101 -468 -26 -52 -27 -60 -14 -80 10 -15 16 -63 20 -149 3 -69 9
-130 13 -134 4 -4 34 -9 66 -10 62 -2 115 -23 124 -49 9 -21 46 -19 54 3 11
29 36 41 81 42 76 0 82 8 75 100 -3 48 -1 109 7 153 l12 73 -46 98 c-70 150
-81 204 -80 386 2 169 15 234 68 324 22 37 34 47 69 57 56 15 136 5 161 -21
17 -16 22 -36 24 -99 3 -64 -1 -92 -23 -160 -26 -77 -27 -87 -16 -139 7 -32
30 -87 51 -123 43 -73 122 -152 143 -143 9 3 16 25 19 55 7 70 19 78 112 81
79 2 79 1 107 -33 85 -103 92 -109 133 -119 22 -6 73 -21 111 -34 62 -21 103
-25 380 -37 587 -26 1821 -10 2067 26 54 8 126 15 160 15 104 1 346 36 470 69
136 36 239 41 278 14 36 -24 229 -183 267 -219 28 -27 33 -39 33 -77 0 -42 3
-47 48 -79 123 -89 324 -304 465 -496 128 -175 171 -245 268 -430 120 -230
146 -275 244 -402 23 -30 49 -68 58 -85 8 -16 35 -53 59 -81 24 -28 66 -86 93
-129 28 -43 61 -94 75 -114 14 -21 39 -58 55 -84 17 -26 59 -91 94 -144 l63
-98 1 -83 c0 -73 -3 -85 -23 -107 -13 -14 -39 -28 -57 -31 -36 -7 -37 -8 -67
-99 -14 -44 -16 -118 -16 -595 0 -430 -3 -550 -13 -570 -7 -14 -58 -81 -113
-150 -255 -318 -374 -472 -374 -483 0 -4 12 -31 26 -60 14 -28 41 -90 59 -137
85 -212 81 -205 117 -207 110 -9 134 -15 163 -41 34 -30 122 -148 164 -221 37
-63 91 -219 106 -306 4 -22 14 -65 21 -95 16 -63 18 -129 5 -197 -5 -26 -14
-93 -21 -148 -24 -210 -64 -312 -213 -555 -22 -36 -54 -90 -71 -120 -16 -30
-34 -59 -38 -65 -5 -5 -20 -28 -35 -50 -101 -153 -219 -324 -238 -345 -12 -14
-43 -56 -69 -95 -26 -38 -70 -101 -97 -140 -28 -38 -61 -86 -74 -106 -13 -20
-30 -42 -37 -50 -8 -8 -30 -36 -49 -64 -19 -27 -67 -95 -108 -150 -40 -55 -93
-127 -117 -160 -24 -33 -73 -99 -109 -147 -35 -48 -69 -98 -76 -110 -6 -13
-24 -36 -39 -53 -15 -16 -58 -75 -96 -130 -37 -55 -93 -131 -124 -170 -30 -38
-76 -103 -103 -143 -26 -41 -78 -115 -116 -165 -37 -51 -76 -105 -87 -122 -10
-16 -21 -32 -25 -35 -15 -12 -79 -120 -79 -134 0 -8 16 -20 35 -26 44 -15 55
-35 55 -101 0 -31 8 -70 19 -93 10 -23 37 -81 60 -130 41 -88 111 -286 150
-426 28 -103 106 -491 125 -625 77 -553 23 -1022 -138 -1199 l-36 -38 -85 3
c-80 4 -86 6 -117 37 -32 31 -33 36 -36 120 -3 75 0 97 22 156 15 38 30 74 35
80 5 6 15 39 21 72 15 75 8 431 -9 484 -6 19 -22 80 -35 135 -14 55 -36 122
-50 149 -14 27 -26 58 -26 68 0 44 -107 202 -144 214 -11 4 -32 15 -46 24 -90
63 -232 143 -307 173 -48 19 -115 51 -148 71 -105 62 -195 106 -294 146 -53
21 -133 54 -178 74 -45 19 -102 40 -125 46 -24 7 -81 30 -128 52 -47 22 -140
65 -207 94 -68 30 -151 68 -185 85 -95 48 -230 97 -352 130 -112 29 -194 73
-235 125 -32 41 -139 385 -181 582 -11 51 -22 96 -24 101 -9 14 -64 420 -86
631 -4 41 -17 133 -29 203 -29 175 -13 273 53 323 13 11 41 51 61 91 20 40 49
81 64 93 16 11 36 37 44 59 9 21 29 49 45 62 36 30 65 79 87 149 20 62 40 90
65 90 22 0 32 14 54 73 12 32 27 52 47 62 31 16 60 65 78 130 14 52 20 59 58
78 24 13 35 29 48 69 27 80 42 106 75 123 16 8 37 30 46 48 9 17 32 51 51 74
40 50 106 187 124 257 10 39 17 50 41 58 34 12 57 53 88 158 12 41 26 80 30
85 4 6 11 29 15 53 7 43 34 72 67 72 22 0 38 32 67 135 50 173 66 208 106 236
53 36 90 113 120 243 7 34 27 99 43 146 16 47 56 168 87 270 31 102 66 210 77
240 11 30 33 100 49 155 52 181 49 187 -121 176 -128 -9 -132 -10 -300 -83
-94 -41 -269 -151 -355 -223 -27 -23 -79 -66 -115 -94 -116 -93 -443 -428
-569 -582 -46 -56 -217 -313 -246 -369 l-16 -32 84 -81 c129 -125 304 -227
482 -281 180 -54 196 -60 220 -82 23 -21 25 -31 25 -104 0 -45 -5 -90 -10
-100 -15 -28 -101 -50 -194 -50 -75 0 -110 -6 -276 -47 -176 -43 -349 -204
-441 -410 -16 -38 -37 -74 -46 -80 -11 -8 -50 -13 -104 -13 -100 0 -115 8
-124 68 -15 93 -20 107 -40 107 -18 0 -23 -17 -48 -135 -59 -287 -99 -594
-132 -1020 -9 -107 -21 -240 -27 -295 -6 -55 -12 -185 -12 -290 -1 -214 11
-293 50 -332 22 -22 31 -24 82 -19 31 3 98 8 149 12 90 6 92 6 118 -21 26 -25
27 -30 23 -113 -4 -67 -10 -96 -27 -124 -38 -62 -39 -138 -3 -233 16 -44 48
-113 70 -153 34 -63 48 -79 101 -111 33 -21 70 -46 81 -56 12 -10 51 -29 88
-41 56 -19 68 -27 74 -51 5 -17 74 -95 177 -200 141 -143 186 -197 268 -318
145 -216 175 -266 254 -422 l72 -143 93 0 c83 0 95 -2 122 -24 75 -64 77 -326
2 -470 -35 -68 -36 -91 -16 -256 35 -278 29 -566 -13 -649 -23 -44 -40 -51
-131 -51 -113 0 -113 -1 -121 330 -8 297 -17 360 -54 360 -8 0 -40 -12 -72
-26 -245 -110 -981 -294 -1175 -294 -98 0 -125 11 -266 103 -53 35 -149 92
-212 127 -179 98 -195 107 -245 146 -26 19 -64 44 -85 55 l-38 20 -59 -39
c-32 -22 -76 -45 -98 -52 -50 -16 -79 -34 -131 -81 -30 -27 -55 -39 -88 -44
-26 -4 -61 -18 -79 -31 -34 -25 -60 -39 -167 -87 -157 -72 -240 -117 -303
-165 -37 -29 -80 -55 -95 -58 -38 -10 -269 -121 -277 -134 -4 -6 -39 -27 -78
-48 -68 -35 -77 -37 -169 -37 l-97 0 -53 51 c-29 28 -91 83 -138 121 -98 81
-420 406 -530 536 -123 144 -195 237 -264 339 -62 91 -146 248 -146 273 0 7
-14 31 -31 54 -39 55 -47 122 -37 338 11 253 30 317 96 325 19 2 44 27 94 93
68 89 203 225 224 225 6 0 19 9 29 20 21 23 131 89 233 140 86 42 271 104 347
117 l50 8 47 85 c26 47 61 127 78 179 34 103 34 153 0 221 -36 71 -37 222 -2
256 13 14 32 15 111 10 53 -3 118 -9 144 -12 67 -9 104 9 117 55 31 120 30
353 -5 701 -8 80 -17 186 -20 235 -16 235 -97 818 -136 965 -5 19 -13 54 -19
78 -18 71 -51 51 -64 -39 -10 -69 -31 -83 -124 -82 -43 0 -88 6 -100 12 -12 6
-44 56 -72 110 -79 154 -180 262 -320 343 -66 38 -281 88 -379 88 -105 0 -177
16 -196 43 -23 33 -21 188 3 210 26 23 104 55 158 63 26 4 59 13 73 20 14 8
33 14 42 14 21 0 252 117 311 158 60 41 198 172 198 188 0 28 -143 259 -209
340 -14 17 -39 48 -56 70 -65 84 -171 197 -346 369 -196 192 -233 224 -429
363 -169 120 -226 148 -325 161 -124 16 -365 32 -377 25 -16 -10 -2 -86 43
-235 48 -159 88 -293 100 -334 37 -131 109 -334 149 -420 16 -33 39 -85 53
-115 13 -31 35 -63 49 -72 15 -10 28 -33 35 -59 50 -191 76 -250 134 -297 20
-16 35 -44 49 -90 11 -36 27 -73 34 -82 19 -21 51 -87 66 -135 7 -22 25 -53
40 -70 15 -16 32 -44 39 -62 7 -17 21 -39 31 -48 11 -10 29 -51 41 -92 20 -67
27 -77 67 -105 32 -22 51 -45 68 -83 12 -29 28 -56 34 -60 5 -3 17 -22 25 -42
8 -19 26 -48 40 -65 14 -16 25 -38 25 -49 0 -10 13 -31 30 -46 16 -14 30 -31
30 -38 0 -13 72 -125 103 -162 12 -13 27 -41 32 -61 8 -26 23 -45 53 -65 23
-16 42 -33 42 -39 0 -6 12 -26 26 -45 14 -18 34 -54 46 -79 14 -32 29 -50 48
-57 26 -10 60 -61 60 -91 0 -7 17 -33 38 -57 21 -24 50 -63 64 -86 15 -23 40
-48 55 -55 21 -10 31 -25 40 -58 16 -63 15 -198 -2 -305 -24 -148 -43 -291
-59 -445 -18 -164 -56 -394 -86 -520 -51 -212 -142 -501 -174 -550 -30 -46
-121 -95 -212 -115 -122 -26 -256 -74 -389 -139 -71 -35 -159 -76 -195 -91
-36 -15 -99 -44 -141 -65 -41 -21 -117 -53 -169 -70 -51 -17 -136 -51 -189
-74 -53 -24 -122 -53 -154 -65 -63 -23 -148 -68 -212 -111 -50 -34 -152 -85
-186 -93 -15 -4 -58 -24 -95 -45 -38 -22 -89 -50 -114 -64 -89 -50 -164 -98
-187 -120 -30 -28 -89 -135 -98 -179 -4 -19 -17 -50 -30 -69 -26 -38 -69 -204
-91 -345 -27 -176 -11 -397 33 -476 10 -17 25 -43 33 -58 9 -17 14 -58 15
-123 0 -95 -1 -98 -30 -128 -56 -56 -194 -54 -247 3 -108 118 -170 364 -170
672 -1 158 5 229 33 455 11 87 43 267 58 330 5 19 14 58 20 85 55 260 130 483
231 684 31 61 45 102 50 151 9 81 12 86 56 105 40 17 42 26 11 68 -90 123
-144 195 -159 211 -9 10 -54 71 -99 135 -46 64 -111 150 -144 191 -34 41 -89
113 -124 160 -84 116 -128 174 -178 234 -23 28 -71 94 -107 146 -35 52 -117
169 -181 260 -64 91 -177 255 -251 365 -74 110 -161 237 -192 282 -31 45 -77
116 -102 158 -25 42 -59 95 -76 118 -17 23 -50 78 -74 122 -24 44 -56 98 -70
120 -44 66 -158 286 -184 357 -14 36 -36 121 -50 189 -35 165 -37 433 -6 550
65 244 98 322 197 458 82 113 110 131 205 131 43 0 70 5 75 13 4 6 27 68 50
137 23 69 53 144 65 168 28 56 25 64 -86 204 -49 62 -122 154 -161 203 -39 50
-100 128 -136 174 l-64 83 -6 567 c-5 523 -9 611 -33 649 -3 5 -21 13 -39 16
-19 3 -44 17 -57 31 -20 21 -23 34 -23 105 l0 80 63 98 c128 197 261 398 292
440 181 240 269 377 376 587 111 216 146 276 196 339 18 23 40 55 51 71 93
153 373 453 498 535 56 37 66 48 71 80 5 33 19 48 108 121 57 45 122 100 144
120 43 39 95 59 152 59 19 0 102 -18 185 -39 105 -28 192 -43 282 -51 72 -6
138 -13 147 -16 51 -15 513 -36 1008 -45 413 -8 680 -8 990 0 504 14 604 21
688 50 35 11 71 21 81 21 29 0 98 58 126 106 15 25 38 49 51 55 33 12 106 12
139 -1 26 -10 29 -14 39 -62 11 -47 41 -33 90 43 56 86 71 222 36 324 -14 41
-20 84 -20 146 0 83 1 89 26 108 39 31 169 30 208 0z m-2759 -4630 c65 -7 102
-17 135 -36 67 -38 261 -169 290 -195 14 -13 50 -42 82 -65 79 -59 475 -459
567 -573 78 -97 176 -237 225 -323 l28 -47 -32 -36 c-114 -130 -344 -259 -550
-309 -173 -41 -220 -88 -220 -219 0 -152 49 -186 301 -206 196 -15 306 -50
421 -135 63 -46 159 -169 199 -253 64 -135 100 -162 218 -162 76 0 115 11 147
41 l21 20 21 -123 c46 -266 98 -670 107 -843 3 -60 10 -137 15 -170 14 -91 34
-409 32 -505 -1 -47 -7 -115 -13 -153 -14 -79 -28 -87 -111 -68 -71 16 -203
14 -237 -4 -42 -21 -56 -66 -56 -175 0 -72 5 -103 18 -128 35 -64 38 -119 10
-206 -14 -44 -35 -96 -47 -115 -12 -20 -30 -55 -40 -78 -17 -39 -22 -43 -65
-48 -43 -6 -235 -66 -273 -87 -10 -5 -18 -6 -18 -2 0 4 22 73 49 153 114 335
167 599 216 1076 4 33 18 130 32 215 20 123 24 179 21 270 -5 131 -21 180 -67
208 -17 10 -48 45 -69 78 -21 32 -46 65 -55 73 -9 7 -17 17 -17 22 0 29 -46
101 -76 118 -19 11 -34 26 -34 33 0 11 -43 81 -96 156 -9 13 -26 28 -39 34
-13 6 -27 25 -34 48 -6 21 -26 57 -44 79 -50 62 -69 91 -95 143 -13 26 -28 48
-33 48 -5 0 -15 16 -24 36 -8 20 -26 49 -40 66 -14 16 -25 36 -25 43 0 7 -10
26 -23 42 -13 15 -31 47 -42 71 -17 41 -75 102 -95 102 -5 0 -18 31 -30 70
-11 38 -31 82 -45 98 -13 15 -27 40 -30 54 -4 14 -20 38 -36 54 -15 15 -36 50
-45 78 -10 28 -25 65 -34 81 -34 59 -49 91 -66 139 -9 27 -38 72 -64 101 -29
32 -54 72 -63 101 -8 27 -27 88 -42 136 -17 57 -34 94 -49 105 -41 32 -123
222 -204 473 -88 269 -169 536 -179 589 l-6 34 109 -7 c60 -4 149 -11 199 -17z"/>
<path d="M6074 12495 c4 -20 15 -55 25 -78 23 -53 34 -177 22 -242 -13 -69
-32 -137 -42 -155 -5 -8 -18 -32 -29 -53 -27 -49 -162 -191 -209 -219 -20 -11
-67 -41 -106 -66 -38 -25 -91 -53 -118 -63 -27 -10 -54 -22 -60 -27 -7 -5 -46
-19 -87 -32 -41 -12 -84 -26 -95 -31 -11 -4 -57 -9 -102 -12 -45 -2 -88 -8
-95 -14 -7 -6 -89 -13 -182 -17 -93 -4 -177 -11 -187 -16 -25 -14 -1832 -13
-1845 0 -7 7 -158 12 -405 16 -217 3 -405 9 -419 14 -42 15 -376 23 -400 10
-19 -10 -52 -38 -161 -136 -81 -72 -222 -235 -304 -349 -151 -210 -174 -247
-274 -450 -46 -93 -94 -186 -106 -205 -12 -19 -46 -73 -75 -120 -29 -47 -57
-87 -62 -89 -5 -1 -34 -40 -64 -85 -71 -105 -141 -206 -232 -332 -39 -56 -72
-105 -72 -109 0 -4 -23 -41 -50 -82 -28 -41 -50 -79 -50 -84 0 -10 8 -13 50
-23 29 -6 70 -65 70 -99 0 -13 4 -27 9 -33 8 -8 19 -523 20 -1020 l1 -132 43
-53 c47 -58 103 -130 267 -338 58 -74 126 -161 152 -194 27 -33 48 -66 48 -73
0 -6 -20 -54 -44 -105 -85 -181 -168 -442 -200 -629 -10 -52 -21 -117 -26
-145 -28 -147 -37 -492 -19 -653 9 -81 16 -105 43 -147 18 -27 52 -83 77 -123
24 -40 59 -94 78 -120 19 -26 49 -72 66 -102 18 -30 58 -95 89 -145 31 -49 66
-107 79 -127 12 -21 46 -75 75 -120 30 -46 61 -96 69 -113 9 -16 49 -80 89
-142 40 -62 102 -160 136 -218 35 -58 74 -123 88 -144 49 -78 127 -206 131
-217 4 -11 90 -145 172 -267 26 -40 64 -96 82 -125 19 -28 52 -77 73 -108 20
-31 51 -78 67 -104 17 -26 38 -58 48 -71 35 -47 227 -342 227 -348 0 -3 16
-29 36 -56 20 -28 47 -72 61 -100 14 -27 31 -53 38 -57 7 -4 18 -21 25 -38 10
-24 10 -33 0 -45 -20 -24 -38 -17 -59 23 -11 20 -30 48 -43 62 -13 14 -34 41
-47 60 -14 19 -48 67 -77 105 -29 39 -73 99 -98 135 -88 125 -117 166 -161
225 -25 33 -57 78 -71 100 -15 22 -40 54 -57 72 -16 18 -40 48 -51 66 -12 19
-54 78 -93 131 -40 53 -73 99 -73 102 0 4 -14 25 -31 48 -16 23 -66 95 -110
161 -90 135 -90 135 -174 265 -100 153 -169 258 -244 369 -39 58 -71 109 -71
115 0 5 -8 19 -18 30 -21 23 -152 229 -152 238 0 3 -18 35 -40 69 -39 63 -106
179 -185 322 -22 40 -69 135 -104 211 -53 118 -67 160 -87 268 -33 178 -36
440 -6 511 7 16 12 33 12 40 0 6 21 75 47 154 61 189 53 198 -46 59 -97 -136
-145 -256 -174 -431 -7 -38 -15 -74 -18 -80 -13 -24 20 -375 39 -412 5 -10 13
-36 17 -58 7 -39 80 -196 115 -245 9 -14 27 -45 39 -70 11 -25 38 -72 58 -105
94 -155 169 -275 204 -327 22 -31 39 -59 39 -63 0 -3 31 -50 68 -103 38 -53
83 -119 102 -147 18 -27 56 -83 84 -123 28 -41 64 -95 80 -120 17 -26 63 -91
103 -144 40 -53 73 -100 73 -103 0 -6 52 -82 129 -190 28 -38 58 -83 67 -100
9 -16 40 -57 68 -90 29 -33 58 -70 66 -81 15 -22 193 -261 207 -279 73 -89
150 -188 200 -256 33 -46 129 -174 212 -284 83 -110 162 -222 177 -249 l26
-48 -25 -26 c-28 -28 -59 -32 -139 -18 l-46 8 5 -40 c5 -34 0 -50 -26 -92 -17
-27 -31 -54 -31 -60 0 -5 -20 -47 -45 -93 -25 -47 -45 -93 -45 -104 0 -10 -6
-27 -14 -38 -7 -11 -17 -36 -21 -55 -4 -19 -14 -44 -21 -55 -8 -11 -14 -30
-14 -43 0 -13 -6 -35 -14 -51 -8 -15 -22 -61 -31 -102 -9 -41 -21 -92 -27
-114 -6 -22 -15 -58 -19 -80 -5 -22 -15 -74 -24 -115 -19 -93 -34 -190 -44
-296 -4 -44 -10 -85 -14 -90 -3 -5 -8 -91 -12 -191 -6 -180 1 -262 37 -418 13
-57 68 -171 99 -204 20 -21 23 -21 37 -7 14 14 14 19 -4 52 -10 21 -27 53 -37
72 -32 61 -49 185 -48 362 0 194 11 288 52 427 16 56 29 115 29 132 0 17 11
42 25 59 14 17 25 37 25 46 0 9 4 24 9 34 83 169 126 223 214 268 34 17 97 52
140 77 43 26 80 47 83 47 3 0 22 11 42 25 20 14 46 25 57 25 28 0 96 33 165
80 64 43 138 82 212 110 29 11 62 25 73 30 134 61 264 112 323 129 40 11 85
28 100 39 32 23 142 74 227 107 33 13 116 50 185 83 127 61 268 110 373 132
59 12 118 40 148 70 17 17 71 167 109 300 39 136 69 254 65 258 -1 2 -17 -16
-33 -40 -43 -62 -80 -94 -137 -118 -48 -21 -92 -33 -423 -120 -179 -48 -311
-91 -344 -114 -12 -9 -30 -16 -39 -16 -9 0 -70 -18 -135 -39 -132 -43 -183
-54 -207 -45 -14 5 -54 65 -184 272 -23 37 -56 87 -73 112 -17 25 -52 79 -77
120 -25 41 -75 120 -111 175 -109 168 -147 226 -207 325 -33 52 -78 121 -102
152 -24 31 -43 59 -43 61 0 6 -64 105 -77 122 -5 6 -24 37 -43 70 -18 33 -47
78 -62 100 -16 22 -53 78 -83 125 -29 47 -67 105 -84 130 -85 121 -101 154
-101 200 0 36 -9 61 -39 111 -21 35 -44 82 -51 104 -7 22 -21 47 -30 55 -18
16 -130 183 -130 195 0 3 -14 26 -31 51 -16 24 -43 72 -58 107 l-27 62 6 685
5 685 23 57 c13 31 45 91 72 132 42 64 59 80 122 117 40 24 75 44 77 45 2 2 1
14 -3 28 -5 22 -10 25 -36 19 -27 -5 -104 12 -166 37 -43 17 -54 61 -54 219 0
80 3 156 6 168 8 27 36 34 70 17 14 -8 36 -14 48 -14 11 -1 32 -7 46 -15 32
-19 91 -20 84 -2 -2 7 -17 18 -32 24 -15 6 -47 23 -72 36 -25 14 -52 28 -60
31 -8 3 -28 14 -45 24 l-30 19 -3 174 c-3 207 -7 199 112 198 127 0 386 -33
397 -50 18 -29 9 -106 -21 -172 -22 -48 -30 -82 -30 -121 0 -30 -5 -67 -12
-83 -6 -15 -15 -59 -19 -98 -4 -38 -12 -92 -18 -120 -10 -47 -40 -232 -41
-247 0 -4 12 -3 27 3 67 25 154 -21 228 -120 45 -60 172 -299 219 -411 10 -25
30 -72 44 -105 56 -134 226 -572 384 -990 27 -71 60 -157 73 -190 13 -33 64
-163 113 -290 50 -126 134 -333 187 -460 54 -126 118 -279 142 -340 25 -60 53
-128 62 -150 10 -22 44 -107 76 -190 32 -82 63 -157 69 -165 15 -19 30 -52 55
-115 10 -27 38 -89 61 -137 l43 -88 383 0 384 0 0 24 c0 12 4 36 10 52 5 16
14 76 20 134 5 58 12 123 15 145 18 147 25 210 31 285 3 47 13 101 21 120 19
47 9 93 -31 138 -18 20 -47 61 -64 91 -16 29 -40 58 -53 65 -14 6 -32 33 -45
66 -15 38 -29 58 -46 64 -17 6 -39 38 -77 112 -29 57 -57 104 -61 104 -21 0
-71 56 -82 91 -6 22 -20 46 -31 54 -19 14 -83 117 -106 173 -7 17 -20 32 -28
32 -8 0 -25 24 -39 53 -47 97 -73 139 -94 154 -28 20 -44 52 -44 93 -1 30 -5
36 -26 38 -14 2 -31 8 -37 14 -16 13 -96 170 -112 221 -7 21 -27 53 -45 70
-18 18 -47 68 -65 112 -18 44 -41 98 -51 120 -10 22 -24 60 -31 84 -7 23 -20
46 -28 48 -41 15 -88 101 -130 242 -24 80 -38 111 -60 130 -51 45 -151 305
-279 726 -17 55 -46 152 -66 215 -45 148 -97 329 -103 357 -3 12 2 32 11 45 9
12 16 40 16 61 0 48 10 51 102 38 40 -6 152 -15 248 -21 161 -10 287 -27 350
-48 31 -10 68 -31 186 -108 94 -62 119 -80 198 -144 24 -19 54 -44 67 -54 22
-18 69 -60 179 -162 63 -59 258 -259 311 -320 40 -45 73 -85 149 -178 27 -32
58 -78 156 -233 135 -210 294 -529 294 -589 0 -39 -37 -30 -80 19 -49 55 -103
126 -135 177 -30 47 -65 54 -90 17 -24 -38 -202 -177 -225 -177 -6 0 -15 -9
-22 -20 -7 -11 -21 -20 -30 -20 -9 0 -50 -17 -90 -38 -81 -42 -151 -68 -219
-78 -24 -4 -53 -13 -64 -20 -11 -8 -29 -14 -42 -14 -23 0 -44 -20 -21 -20 93
-2 273 -22 307 -34 24 -9 53 -16 65 -16 53 0 183 -58 253 -112 20 -16 39 -28
44 -28 35 0 222 -253 250 -338 14 -42 26 -31 32 28 14 138 57 272 116 359 48
71 67 75 93 21 60 -123 176 -674 218 -1030 5 -41 13 -113 20 -160 32 -252 79
-850 80 -1021 0 -149 -29 -321 -61 -355 -54 -58 -188 -79 -303 -49 -33 9 -61
14 -63 11 -3 -2 2 -15 11 -28 8 -12 25 -59 37 -103 17 -64 20 -93 15 -153 -8
-81 -48 -200 -97 -287 -17 -31 -30 -58 -27 -60 2 -2 30 21 63 50 93 85 191
153 293 202 50 25 92 49 92 53 0 5 -7 39 -15 75 -9 36 -16 98 -17 138 -1 71 5
90 58 202 24 52 64 177 64 202 0 14 5 33 11 45 25 47 56 203 129 653 24 146
60 684 60 895 0 176 -22 521 -39 617 -6 32 -16 87 -22 123 -53 312 -147 631
-269 921 -60 140 -189 415 -216 459 -8 14 -24 43 -35 65 -86 171 -471 755
-498 755 -4 0 -14 13 -24 29 -28 48 -226 282 -354 419 -86 92 -121 136 -117
147 11 28 270 9 365 -27 15 -5 87 -13 160 -18 85 -5 160 -16 204 -29 44 -13
99 -21 147 -21 48 0 100 -7 140 -20 34 -11 108 -23 163 -26 55 -4 103 -11 106
-16 10 -15 78 -28 150 -28 36 0 69 -4 75 -9 5 -6 44 -17 86 -26 71 -14 80 -14
108 0 17 9 33 21 34 28 2 7 11 41 21 77 10 36 27 97 40 135 12 39 34 106 47
150 87 274 103 325 118 370 36 102 71 211 77 235 9 40 32 61 54 50 12 -7 20
-7 24 0 3 5 15 10 25 10 20 0 58 -87 100 -231 12 -41 26 -78 30 -84 4 -5 11
-26 15 -45 4 -19 33 -114 65 -210 84 -255 140 -435 140 -448 0 -6 13 -20 30
-32 27 -19 35 -20 92 -10 35 6 77 17 93 25 17 7 69 16 118 18 52 3 96 11 110
19 12 9 61 18 112 22 50 3 123 15 164 26 41 11 106 20 145 20 38 0 83 4 100 9
113 33 152 41 246 45 58 2 141 13 185 24 44 11 135 23 202 27 108 6 124 5 129
-9 7 -18 -32 -66 -166 -205 -44 -47 -92 -101 -107 -120 -14 -20 -34 -43 -42
-52 -9 -8 -45 -53 -81 -99 -36 -45 -81 -102 -100 -126 -79 -97 -352 -507 -385
-578 -5 -11 -12 -23 -16 -26 -22 -18 -257 -486 -296 -590 -13 -36 -30 -78 -38
-95 -60 -131 -171 -481 -204 -645 -4 -19 -13 -51 -19 -70 -15 -49 -49 -259
-68 -420 -18 -164 -25 -585 -12 -805 13 -231 60 -656 86 -795 6 -30 20 -107
31 -171 11 -64 32 -158 46 -210 14 -52 35 -127 46 -168 11 -40 41 -121 67
-180 45 -101 47 -110 46 -191 -1 -47 -9 -109 -17 -138 -16 -54 -14 -82 7 -82
19 0 124 -57 197 -107 39 -26 78 -52 88 -58 9 -5 44 -36 76 -67 33 -31 61 -55
63 -53 4 4 -35 80 -54 105 -6 8 -14 26 -17 40 -3 14 -14 50 -26 80 -37 98 -26
284 23 379 15 28 15 33 3 28 -88 -33 -238 -32 -306 3 -56 28 -70 54 -93 172
-18 92 -20 127 -14 338 3 129 10 267 15 305 6 39 17 165 26 280 15 203 46 491
66 625 5 36 14 101 20 145 6 44 31 177 56 295 40 189 60 270 107 424 6 21 19
44 29 50 15 9 23 6 43 -19 71 -84 115 -191 135 -330 22 -143 19 -141 68 -42
60 121 167 255 240 299 20 12 41 26 46 30 30 24 86 57 106 63 13 3 33 10 44
15 52 24 228 55 378 65 48 4 85 11 81 16 -3 5 -15 9 -28 9 -12 0 -31 7 -42 15
-10 8 -31 15 -45 15 -34 0 -190 49 -209 65 -8 7 -44 25 -79 40 -36 15 -84 41
-107 58 -24 18 -60 43 -80 57 -20 14 -65 53 -101 88 -43 41 -69 59 -78 55 -8
-5 -39 -44 -71 -88 -95 -132 -134 -175 -162 -175 -23 0 -24 3 -19 40 5 40 147
339 215 455 64 109 188 299 228 351 169 219 468 529 654 678 52 42 113 91 134
108 22 18 52 40 67 48 15 8 48 30 74 48 25 17 49 32 52 32 3 0 21 11 39 25 18
14 39 25 46 25 7 0 52 20 99 44 49 24 108 46 137 50 28 3 71 16 97 27 26 12
62 19 83 18 28 -2 36 0 34 11 -2 8 -8 18 -14 21 -20 13 -134 115 -176 159 -46
48 -128 152 -204 259 -56 79 -204 346 -214 386 -4 16 -20 48 -36 71 -15 23
-28 49 -28 57 0 9 -4 18 -9 22 -5 3 -15 22 -22 43 -6 20 -20 49 -30 64 -11 14
-22 41 -25 60 -4 18 -17 56 -30 85 -13 28 -24 57 -24 64 0 19 -92 303 -102
317 -23 28 -221 8 -241 -25 -5 -8 -29 -13 -67 -13 -63 0 -136 -14 -185 -35
-16 -7 -66 -19 -110 -26 -44 -6 -88 -19 -99 -28 -13 -11 -46 -17 -116 -21 -74
-4 -103 -10 -117 -23 -16 -14 -38 -17 -113 -17 -98 0 -189 -13 -253 -36 -54
-20 -295 -19 -343 1 -20 8 -77 20 -128 26 -50 7 -96 18 -101 24 -6 7 -26 20
-45 29 -112 53 -150 87 -150 133 0 13 9 42 20 63 23 45 47 51 75 20 10 -11 30
-20 45 -20 14 0 41 -11 60 -25 24 -18 47 -25 79 -25 31 0 58 -8 81 -23 34 -21
42 -22 290 -22 217 1 259 3 280 17 18 11 61 18 150 22 149 8 268 24 295 41 11
6 65 15 119 18 70 5 104 11 117 23 18 16 118 33 199 34 52 0 133 38 139 65 6
33 -40 115 -73 129 -87 39 -117 35 -258 -27 -21 -10 -47 -17 -58 -17 -12 0
-60 -11 -108 -24 -48 -13 -134 -27 -191 -31 -62 -4 -120 -14 -145 -24 -36 -16
-80 -18 -336 -20 -274 -2 -300 -1 -350 18 -68 24 -225 44 -289 35 l-48 -6 -26
53 c-50 107 -79 190 -74 212 5 21 12 43 58 192 12 39 34 139 50 224 27 144 29
171 29 426 1 178 -2 280 -9 294 -6 11 -11 38 -11 60 0 22 -3 42 -7 44 -5 3 -9
-108 -10 -247 -3 -332 -31 -546 -103 -781 -11 -38 -26 -88 -31 -110 -13 -50
-35 -85 -54 -85 -8 0 -26 23 -41 51 l-25 51 17 77 c9 42 21 108 25 146 5 39
13 104 18 145 6 41 10 116 11 167 0 51 5 115 11 143 7 32 8 55 2 61 -10 10
-24 -44 -42 -166 -22 -144 -51 -311 -62 -347 -10 -38 -28 -48 -46 -25 -16 19
-55 196 -87 392 -21 131 -37 169 -69 173 -21 3 -27 -1 -27 -15 5 -234 31 -493
67 -664 17 -80 12 -126 -13 -136 -17 -6 -54 23 -54 44 0 7 -4 21 -10 31 -18
33 -58 147 -70 202 -7 30 -19 75 -26 100 -7 25 -18 81 -24 125 -6 44 -15 94
-20 110 -8 25 -20 352 -20 528 0 30 -4 46 -10 42 -5 -3 -10 -24 -10 -46 0 -22
-5 -50 -12 -62 -9 -16 -11 -100 -10 -302 2 -251 5 -293 27 -410 27 -138 38
-180 92 -344 l35 -104 -27 -66 c-14 -36 -38 -91 -53 -121 -26 -54 -28 -55 -67
-53 -81 3 -258 -19 -304 -39 -42 -18 -67 -19 -341 -17 -255 1 -301 4 -340 19
-26 10 -90 21 -150 25 -58 4 -144 18 -192 31 -48 13 -99 24 -114 24 -14 0 -43
8 -63 19 -20 10 -63 27 -97 38 -53 17 -67 18 -103 7 -23 -7 -52 -19 -65 -27
-23 -15 -66 -94 -66 -120 0 -21 102 -67 151 -67 80 -1 180 -18 198 -34 13 -12
47 -18 117 -23 54 -3 105 -10 111 -16 22 -17 144 -35 293 -42 113 -6 149 -11
163 -23 17 -15 53 -17 282 -17 241 0 265 2 283 18 13 12 46 22 87 27 46 6 74
15 89 29 12 12 34 21 48 21 14 0 37 9 51 20 14 11 33 20 42 20 18 0 54 -71 55
-107 0 -27 -43 -80 -73 -89 -12 -4 -33 -15 -46 -25 -13 -11 -32 -19 -42 -19
-10 0 -23 -8 -28 -18 -7 -14 -32 -21 -112 -31 -57 -7 -115 -19 -130 -27 -35
-18 -283 -20 -326 -3 -48 20 -124 31 -243 36 -87 3 -119 8 -133 20 -12 12 -46
18 -121 22 -75 4 -109 11 -122 22 -11 9 -55 22 -99 28 -44 7 -93 18 -110 25
-49 22 -122 36 -179 36 -32 0 -60 6 -68 13 -18 19 -60 28 -141 34 -93 6 -113
0 -125 -39 -6 -18 -27 -87 -47 -153 -20 -66 -49 -154 -66 -195 -16 -41 -29
-86 -29 -100 0 -14 -9 -36 -20 -50 -11 -14 -20 -28 -20 -32 0 -13 -62 -141
-80 -168 -9 -14 -20 -36 -23 -50 -4 -14 -30 -68 -58 -120 -29 -52 -63 -117
-77 -145 -37 -71 -81 -125 -102 -125 -10 0 -92 -20 -182 -44 -218 -58 -427
-106 -459 -106 -45 0 -61 67 -44 178 4 24 2 78 -4 121 -10 65 -9 83 4 114 9
21 15 59 15 85 -1 113 6 210 16 223 16 20 24 97 13 126 -10 27 22 156 41 168
6 3 10 23 10 44 0 21 7 60 15 87 8 27 15 65 15 84 1 19 7 46 15 60 8 14 14 35
15 48 0 12 9 40 20 62 11 22 20 54 20 73 0 18 7 42 15 53 8 10 15 31 15 46 0
15 11 48 25 74 14 26 25 53 25 60 0 7 20 53 45 103 25 50 45 96 45 102 0 6 12
33 26 60 22 39 33 50 60 55 19 3 46 3 61 -1 41 -10 315 -26 583 -33 129 -4
241 -11 249 -16 8 -5 116 -13 240 -17 124 -4 293 -13 376 -20 l149 -12 109
114 c145 152 358 388 432 478 33 40 78 94 101 120 22 26 53 65 69 87 16 21 41
53 55 70 14 17 32 41 40 53 8 13 45 63 83 113 37 50 67 94 67 99 0 4 6 14 13
21 7 7 30 45 51 83 21 39 46 81 55 95 50 77 98 210 112 307 15 107 -2 236 -41
314 -34 67 -56 78 -46 24z m-3624 -1825 c25 -9 259 -23 600 -36 96 -3 181 -11
188 -16 21 -17 14 -36 -46 -137 -32 -53 -94 -159 -137 -236 -90 -163 -109
-194 -227 -375 -48 -74 -88 -141 -88 -150 0 -8 -18 -48 -40 -88 -22 -40 -40
-80 -40 -88 0 -8 -8 -32 -19 -52 -10 -20 -26 -53 -36 -72 -10 -19 -23 -60 -30
-90 -14 -58 -36 -124 -60 -177 -8 -17 -15 -43 -15 -57 0 -14 -18 -63 -39 -108
-65 -139 -71 -157 -71 -219 0 -34 -6 -73 -14 -87 -19 -36 -50 -107 -71 -165
-9 -26 -23 -53 -30 -61 -7 -7 -49 -18 -92 -25 -43 -7 -127 -21 -188 -31 -60
-10 -143 -23 -184 -27 -107 -13 -104 -18 -97 191 3 94 9 341 12 549 l6 377
-58 68 c-32 37 -81 92 -108 123 -81 88 -110 121 -131 150 -11 15 -62 74 -114
131 -138 153 -206 229 -236 266 -15 17 -31 32 -36 32 -23 0 0 -60 115 -293 68
-139 127 -263 131 -276 6 -18 7 -279 3 -431 0 -8 0 -31 1 -50 2 -49 -17 -998
-24 -1220 -3 -69 -5 -128 -5 -133 0 -4 -24 -22 -52 -41 -29 -19 -64 -44 -76
-57 -33 -33 -112 -139 -112 -150 0 -12 -37 -12 -44 0 -3 4 -8 584 -11 1287 -6
1215 -7 1281 -25 1332 -10 29 -16 61 -13 70 9 25 111 178 137 204 13 13 31 35
41 51 9 15 22 27 27 27 5 0 24 11 41 24 64 48 121 71 187 76 109 8 1053 -1
1080 -10z m4024 -362 c26 -41 29 -75 10 -107 -23 -40 -53 -50 -71 -25 -24 32
-26 63 -8 109 19 51 45 59 69 23z m-194 -247 c14 -28 12 -57 -5 -71 -13 -10
-19 -10 -35 5 -20 18 -25 41 -14 69 8 22 41 20 54 -3z m310 3 c21 -24 1 -69
-30 -69 -20 0 -26 6 -28 28 -6 48 31 74 58 41z m-5323 -2559 c2 -88 -1 -398
-5 -690 -7 -520 -7 -530 -27 -532 -15 -2 -30 13 -56 55 -50 81 -136 286 -148
355 -6 32 -13 63 -17 68 -12 20 -27 198 -25 304 3 159 21 240 90 394 36 82 58
117 99 159 83 82 87 77 89 -113z"/>
<path d="M1334 10526 c-71 -36 -164 -121 -164 -150 0 -14 88 -117 260 -306 43
-47 96 -107 117 -135 22 -27 53 -63 68 -79 15 -16 63 -72 108 -125 44 -53 96
-112 114 -132 31 -32 34 -42 37 -105 1 -38 -3 -91 -10 -119 -12 -49 -28 -814
-17 -842 6 -16 46 -17 93 -3 19 6 73 15 119 20 51 6 90 15 101 25 29 26 81
162 96 254 19 105 46 190 79 247 14 24 25 58 25 79 0 20 7 50 16 67 33 63 74
174 74 198 0 14 8 41 19 60 23 44 38 92 46 152 5 38 11 50 33 60 17 9 33 31
48 68 24 60 62 125 202 344 50 80 92 147 92 150 0 2 27 52 60 111 63 112 68
129 48 142 -7 4 -138 11 -291 15 -153 4 -292 11 -310 17 -18 6 -239 13 -512
16 l-480 7 -71 -36z m1053 -38 c18 -7 123 -13 291 -16 174 -3 262 -8 262 -15
0 -18 -150 -273 -256 -437 -41 -63 -93 -152 -115 -197 -22 -45 -51 -89 -64
-97 -24 -16 -34 -42 -55 -148 -6 -31 -17 -61 -24 -67 -8 -6 -19 -39 -26 -73
-6 -33 -16 -68 -20 -77 -28 -51 -70 -163 -70 -188 0 -15 -13 -55 -29 -88 -36
-71 -68 -179 -77 -255 -4 -30 -22 -91 -41 -135 l-35 -81 -81 -12 c-45 -7 -97
-15 -114 -18 l-33 -6 0 363 c0 239 4 378 12 404 6 22 13 77 15 122 5 96 -5
121 -81 203 -44 49 -110 125 -320 368 -26 32 -67 77 -91 102 -70 74 -205 232
-205 241 0 12 84 78 126 99 37 18 66 19 521 20 346 0 490 -3 510 -12z"/>
<path d="M1115 9568 c-10 -41 -1 -601 10 -605 32 -10 35 14 40 301 4 158 3
296 0 306 -9 28 -43 26 -50 -2z"/>
<path d="M1114 8796 c-3 -7 -4 -38 -2 -67 3 -46 6 -54 23 -54 17 0 20 8 23 59
2 41 -1 62 -10 67 -19 12 -28 11 -34 -5z"/>
<path d="M6665 12438 c-37 -81 -46 -227 -22 -334 25 -106 147 -336 267 -503
25 -34 65 -90 90 -124 54 -75 277 -353 334 -418 23 -25 55 -62 72 -83 35 -41
227 -246 346 -368 l76 -78 74 0 c41 0 78 4 84 10 5 5 116 11 254 14 177 3 260
8 300 19 35 10 123 18 240 22 102 3 245 10 318 16 102 9 140 8 162 -1 25 -10
36 -10 64 4 21 10 60 16 105 16 58 0 74 -4 88 -19 14 -17 18 -18 28 -5 23 33
185 51 467 53 75 1 147 6 160 11 39 17 1270 47 1303 31 11 -5 43 -19 70 -32
78 -35 171 -116 225 -194 54 -79 54 -81 51 -600 -8 -1847 -12 -2379 -17 -2386
-12 -20 -35 -6 -81 50 -26 33 -52 60 -56 60 -5 1 -21 10 -35 20 -15 10 -55 33
-89 51 -35 17 -64 34 -64 38 -1 4 -3 54 -4 112 -2 58 -6 197 -9 310 -13 445
-30 1509 -27 1638 3 90 13 115 212 519 33 67 59 131 57 142 -4 26 -10 22 -88
-69 -35 -41 -74 -86 -86 -100 -63 -70 -129 -147 -219 -255 -55 -65 -142 -166
-194 -224 -146 -166 -132 -113 -126 -496 2 -181 7 -368 10 -415 3 -47 8 -276
12 -510 9 -562 9 -620 3 -631 -7 -10 -97 -61 -158 -89 -43 -20 -52 -42 -19
-48 8 -2 36 6 62 18 28 13 61 20 83 18 33 -3 37 -6 40 -34 6 -57 -11 -80 -75
-99 -32 -10 -63 -22 -69 -27 -7 -5 -30 -6 -52 -2 -35 5 -41 4 -47 -15 -9 -29
-4 -34 70 -76 68 -37 91 -62 149 -159 77 -128 74 -87 79 -967 3 -433 2 -803
-3 -823 -5 -21 -43 -80 -95 -148 -49 -61 -97 -128 -108 -147 -11 -20 -39 -65
-62 -101 -47 -72 -88 -140 -250 -407 -60 -100 -132 -217 -159 -260 -54 -86
-299 -490 -326 -538 -19 -33 -235 -391 -250 -415 -5 -8 -35 -58 -66 -110 -31
-52 -66 -111 -79 -130 -12 -19 -42 -68 -66 -109 -52 -89 -69 -99 -146 -81
-164 36 -262 63 -365 100 -62 23 -142 52 -178 65 -58 21 -201 67 -470 150
-121 38 -186 78 -223 137 -17 26 -31 47 -33 45 -2 -2 37 -158 66 -262 6 -22
31 -101 56 -175 l45 -135 50 -34 c36 -24 84 -43 162 -63 123 -32 251 -80 367
-138 41 -21 104 -50 140 -64 36 -15 79 -34 97 -42 17 -8 34 -14 38 -14 4 0 34
-16 68 -36 34 -20 94 -45 132 -56 57 -16 187 -68 320 -128 11 -5 44 -19 72
-30 57 -21 144 -66 208 -105 70 -44 129 -73 172 -84 43 -12 86 -35 259 -140
56 -33 106 -61 112 -61 30 0 127 -150 168 -259 13 -35 30 -71 39 -81 9 -9 20
-41 24 -71 5 -30 21 -94 35 -144 44 -159 58 -430 31 -633 -12 -90 -22 -126
-50 -182 -37 -74 -44 -117 -20 -126 21 -8 40 15 79 93 109 216 121 606 35
1088 -35 192 -70 357 -95 445 -8 30 -22 80 -31 110 -8 30 -18 60 -23 65 -4 6
-15 36 -24 67 -9 31 -21 60 -26 63 -6 3 -10 16 -10 27 0 21 -16 59 -97 226
-37 76 -44 99 -39 127 6 30 4 35 -13 35 -11 0 -23 -5 -26 -10 -3 -6 -28 -10
-54 -10 -56 0 -101 28 -101 63 0 21 64 129 112 191 13 16 41 55 63 86 22 32
65 93 96 136 30 44 90 129 133 189 42 61 82 117 89 125 38 48 140 188 192 264
33 49 69 99 80 111 11 11 33 41 49 66 16 24 48 69 72 99 57 73 244 330 244
336 0 2 31 44 68 92 38 48 86 112 107 142 74 104 150 213 188 269 22 31 42 58
46 61 23 15 345 506 388 590 10 19 28 49 39 65 41 57 112 210 132 285 11 41
26 136 33 210 17 187 -1 302 -74 479 -26 61 -96 182 -117 201 -4 3 -19 22 -34
43 -16 20 -33 37 -38 37 -13 0 -9 -19 42 -170 23 -69 46 -138 51 -155 6 -16
13 -102 16 -190 5 -140 3 -176 -16 -275 -12 -63 -34 -144 -48 -179 -32 -76
-144 -299 -180 -356 -14 -22 -79 -128 -146 -235 -66 -107 -142 -225 -168 -261
-26 -37 -55 -82 -65 -100 -9 -19 -43 -68 -74 -109 -31 -41 -98 -136 -148 -210
-121 -180 -287 -419 -347 -500 -14 -19 -41 -57 -60 -85 -67 -98 -187 -271
-233 -335 -69 -97 -116 -165 -179 -260 -31 -47 -59 -87 -63 -90 -3 -3 -17 -23
-30 -45 -13 -22 -43 -66 -66 -97 -24 -31 -50 -70 -58 -87 -9 -16 -33 -49 -53
-74 -21 -24 -46 -59 -55 -76 -12 -21 -24 -31 -35 -29 -31 6 -27 46 10 101 18
29 37 59 41 67 3 8 20 35 36 60 16 25 41 67 55 94 14 27 49 85 79 130 79 121
126 196 126 201 0 2 13 24 29 47 80 120 141 216 141 221 0 8 62 104 89 137 11
14 21 28 21 32 0 9 83 137 133 206 18 26 36 54 39 62 3 8 43 72 89 142 46 70
140 213 209 319 69 106 155 238 191 293 36 56 86 133 111 171 25 39 58 90 74
114 16 24 47 72 69 107 22 34 66 100 98 146 32 45 80 117 108 159 l49 77 15
143 c14 135 14 157 -5 349 -29 303 -39 365 -85 520 -9 30 -21 73 -26 95 -6 21
-16 53 -23 70 -7 16 -20 48 -28 70 -42 110 -93 218 -130 274 l-40 62 25 37
c13 21 51 71 84 112 32 41 104 131 158 200 54 69 131 166 170 215 39 50 83
106 98 126 l27 36 0 566 c0 476 2 570 15 594 8 15 16 39 19 53 8 36 52 80 82
80 13 0 27 6 30 13 5 15 -107 200 -188 309 -55 75 -132 186 -204 293 -26 39
-59 84 -74 100 -43 48 -143 211 -205 335 -78 154 -150 284 -191 345 -70 104
-181 255 -228 311 -65 77 -292 304 -332 332 l-31 21 -1534 4 c-1089 2 -1544 6
-1569 14 -19 6 -109 14 -199 17 -89 4 -171 10 -180 15 -9 5 -55 12 -101 16
-47 4 -97 14 -112 21 -15 8 -37 14 -50 14 -13 0 -32 7 -42 15 -11 8 -30 15
-42 15 -12 0 -27 7 -34 15 -7 8 -21 15 -30 15 -22 0 -120 50 -205 105 -84 54
-215 188 -248 255 -42 87 -59 185 -48 279 6 43 19 103 31 132 23 62 23 59 11
59 -4 0 -21 -28 -36 -62z m4907 -4935 c124 -109 180 -200 214 -345 5 -21 26
-234 26 -268 0 -30 -21 -181 -32 -220 -5 -22 -15 -59 -20 -82 -13 -51 -16 -58
-66 -168 -36 -78 -135 -236 -158 -252 -28 -19 -33 18 -40 324 -12 549 -17
1038 -11 1048 12 19 35 10 87 -37z"/>
<path d="M11643 7043 c-9 -3 -13 -33 -13 -99 0 -78 3 -96 16 -101 25 -9 34 16
34 103 0 82 -10 107 -37 97z"/>
<path d="M7150 11882 c0 -5 16 -29 36 -55 31 -39 50 -52 142 -90 136 -57 132
-56 238 -66 434 -45 328 -43 1674 -31 696 5 1374 10 1508 10 152 0 241 4 237
10 -3 5 -64 56 -135 114 l-129 106 -38 -14 c-140 -48 -303 -75 -593 -97 -80
-6 -192 -15 -250 -20 -252 -21 -775 -31 -1405 -26 -744 6 -932 15 -1045 51
-41 14 -93 29 -115 35 -22 6 -57 26 -78 46 -40 36 -47 41 -47 27z"/>
<path d="M5650 11836 c-35 -33 -57 -45 -91 -50 -25 -4 -70 -16 -100 -28 -89
-35 -410 -49 -1189 -52 -610 -3 -1035 6 -1305 28 -399 32 -571 50 -640 67 -22
6 -60 15 -85 20 -25 5 -52 14 -60 18 -9 5 -29 11 -46 15 -33 7 -33 7 -198
-129 l-97 -80 313 -7 c522 -12 2728 -25 2803 -18 451 47 424 43 560 97 90 36
168 95 181 136 10 31 1 28 -46 -17z"/>
<path d="M5820 11252 c-19 -26 -48 -60 -63 -77 -16 -16 -44 -52 -62 -80 -18
-27 -43 -59 -55 -70 -12 -11 -56 -60 -98 -110 -76 -90 -217 -243 -387 -419
-84 -86 -93 -93 -139 -99 -70 -10 -185 -9 -243 2 -27 5 -110 13 -186 17 -126
6 -137 5 -143 -11 -10 -26 14 -40 125 -73 161 -49 220 -62 366 -82 77 -11 156
-24 175 -29 97 -28 495 -16 649 18 52 12 119 21 150 21 65 0 73 4 95 47 22 44
20 87 -9 174 -14 41 -41 151 -60 246 -32 158 -35 187 -35 350 0 98 -3 188 -6
201 -10 35 -36 26 -74 -26z m35 -383 c3 -24 12 -73 20 -109 7 -36 19 -92 25
-125 6 -33 25 -102 41 -154 32 -99 33 -153 3 -165 -9 -3 -37 -6 -63 -6 -45 0
-235 -35 -254 -47 -16 -10 -475 -5 -494 6 -11 5 -80 17 -154 26 -74 10 -162
25 -195 34 l-62 16 167 0 c196 0 192 -2 302 112 120 124 330 353 379 413 25
30 66 75 91 100 25 25 58 64 73 88 15 24 44 61 64 83 l37 39 6 -133 c4 -74 10
-154 14 -178z"/>
<path d="M6916 11285 c-3 -9 -6 -98 -7 -198 -1 -174 -6 -238 -27 -337 -5 -25
-15 -74 -21 -110 -7 -36 -26 -109 -43 -162 l-31 -97 18 -48 c26 -69 31 -73 94
-73 31 0 99 -10 151 -21 180 -39 529 -42 725 -6 44 8 109 18 145 22 36 3 94
15 129 26 35 10 71 19 80 19 25 0 275 84 283 95 4 6 1 16 -7 24 -11 12 -48 12
-237 2 -305 -15 -393 -15 -433 5 -19 8 -60 46 -93 82 -33 37 -110 119 -172
182 -62 63 -140 149 -173 190 -34 41 -66 78 -71 82 -5 3 -68 80 -140 170 -72
89 -138 164 -147 166 -9 2 -19 -4 -23 -13z m103 -154 c71 -96 305 -365 432
-496 37 -38 105 -109 150 -157 106 -113 131 -123 294 -122 66 0 158 3 205 7
66 5 76 4 45 -3 -22 -6 -74 -19 -115 -29 -41 -11 -115 -25 -165 -32 -49 -6
-110 -16 -135 -22 -136 -29 -501 -23 -660 12 -52 11 -115 21 -140 21 -54 0
-62 5 -79 46 -10 26 -9 38 8 81 23 59 55 189 70 283 6 36 15 81 21 100 5 19
10 107 10 196 0 146 4 183 18 169 3 -3 22 -27 41 -54z"/>
<path d="M11050 10577 c-17 -7 -155 -13 -410 -17 -214 -3 -392 -9 -400 -14 -8
-6 -108 -13 -222 -16 -261 -7 -259 -6 -197 -111 24 -41 53 -92 64 -114 46 -88
133 -230 195 -320 56 -81 100 -157 100 -173 0 -9 16 -48 35 -86 19 -38 37 -82
40 -97 3 -15 26 -66 51 -114 24 -47 44 -99 44 -115 0 -16 13 -65 28 -107 16
-43 32 -94 36 -114 3 -20 22 -62 42 -95 19 -32 38 -72 41 -89 3 -16 14 -44 24
-60 11 -18 20 -62 25 -110 6 -74 20 -120 78 -250 16 -36 86 -64 178 -73 48 -4
59 -2 64 12 4 10 1 194 -5 409 -7 216 -13 419 -14 452 -2 105 18 319 34 346
17 32 111 147 165 204 22 23 57 63 79 90 68 85 186 224 282 332 108 120 127
148 117 164 -4 6 -40 27 -80 45 -72 34 -73 34 -221 33 -88 0 -158 -5 -173 -12z
m364 -61 c53 -22 53 -33 -3 -87 -28 -27 -51 -52 -51 -55 0 -4 -19 -28 -42 -54
-69 -75 -148 -166 -207 -240 -31 -37 -87 -104 -126 -147 -169 -192 -171 -196
-181 -363 -8 -143 -9 -217 0 -380 3 -63 9 -233 12 -378 l7 -264 -39 7 c-55 10
-124 41 -124 57 0 7 -12 37 -25 67 -16 34 -31 92 -39 157 -8 58 -20 112 -30
125 -9 13 -16 31 -16 40 0 9 -16 47 -37 85 -20 38 -42 89 -49 114 -7 25 -24
79 -38 120 -15 41 -26 86 -26 100 0 15 -20 65 -44 112 -23 46 -46 96 -49 110
-4 14 -23 60 -42 101 -19 41 -35 80 -35 87 0 14 -22 50 -135 225 -39 61 -98
157 -130 215 -32 58 -71 125 -87 149 -15 24 -26 46 -24 48 7 7 358 23 741 33
209 6 396 15 415 19 61 15 366 13 404 -3z"/>
<path d="M9581 10493 c21 -43 39 -85 39 -93 0 -9 7 -26 16 -38 8 -12 22 -44
30 -72 8 -27 19 -50 24 -50 5 0 12 -17 16 -37 3 -21 15 -52 25 -69 11 -17 19
-49 19 -70 1 -22 7 -50 15 -64 8 -14 14 -37 15 -53 0 -15 9 -44 20 -64 11 -21
17 -46 14 -58 -3 -12 2 -39 10 -60 9 -21 16 -61 16 -90 0 -35 5 -57 15 -65 8
-7 15 -19 15 -26 0 -8 9 -41 21 -73 15 -46 18 -65 10 -80 -17 -31 -13 -70 10
-107 18 -30 19 -39 9 -87 -7 -38 -8 -62 0 -81 5 -15 10 -52 10 -81 0 -30 7
-73 16 -96 13 -32 15 -48 6 -77 -23 -78 -25 -128 -7 -156 16 -24 16 -30 0 -97
-19 -76 -22 -137 -10 -180 6 -24 2 -30 -38 -58 -25 -17 -52 -31 -60 -31 -8 0
-26 -9 -40 -20 -14 -12 -40 -25 -57 -31 -59 -21 -35 -35 73 -42 78 -5 95 -22
77 -76 -12 -36 -11 -45 5 -81 12 -26 16 -51 12 -72 -7 -34 -79 -273 -140 -463
-19 -60 -63 -198 -96 -305 -92 -294 -101 -320 -132 -388 -16 -35 -29 -67 -29
-72 0 -5 -18 -24 -40 -43 -35 -30 -44 -46 -75 -148 -45 -144 -81 -218 -119
-239 -24 -13 -35 -34 -66 -120 -67 -188 -86 -229 -114 -240 -13 -5 -28 -27
-39 -57 -10 -26 -25 -61 -34 -78 -9 -16 -27 -52 -41 -80 -13 -27 -39 -66 -57
-85 -18 -19 -36 -46 -40 -60 -12 -39 -36 -71 -62 -81 -13 -5 -28 -21 -33 -36
-6 -16 -17 -41 -25 -58 -8 -16 -21 -47 -29 -67 -10 -25 -23 -39 -40 -44 -18
-4 -29 -17 -37 -42 -22 -71 -71 -152 -95 -158 -16 -4 -27 -20 -39 -57 -19 -59
-40 -87 -66 -87 -12 0 -33 -31 -70 -104 -38 -77 -59 -106 -75 -110 -15 -4 -28
-20 -40 -53 -9 -27 -31 -61 -49 -78 -18 -16 -48 -59 -66 -94 -19 -35 -44 -68
-55 -73 -40 -18 -56 -87 -32 -131 7 -12 13 -47 14 -77 1 -30 7 -93 13 -140 6
-47 17 -148 26 -225 17 -149 33 -269 41 -298 5 -16 30 -17 381 -15 l375 3 64
145 c69 153 123 282 209 495 29 72 94 231 144 355 51 124 137 338 192 475 56
138 107 264 114 280 8 17 37 89 65 160 28 72 80 200 115 285 35 85 104 256
153 380 50 124 123 304 162 400 40 96 98 238 129 315 75 185 192 376 263 431
54 41 107 64 149 64 24 0 25 3 26 53 1 33 -6 67 -18 93 -11 23 -17 49 -13 58
4 9 -1 37 -11 62 -12 31 -15 59 -11 85 4 28 2 46 -10 64 -13 20 -15 39 -11 82
4 39 2 65 -8 82 -48 89 -56 117 -53 176 3 57 5 61 38 77 26 13 60 18 130 18
139 0 184 18 98 38 -43 10 -134 41 -258 88 l-65 24 -27 78 c-14 42 -38 109
-53 147 -15 39 -28 95 -30 125 -3 66 -26 131 -77 222 -21 37 -38 81 -38 97 0
17 -9 45 -20 63 -11 18 -20 44 -20 58 -1 14 -7 36 -15 50 -8 14 -14 39 -15 55
0 28 -49 137 -71 160 -5 5 -9 20 -9 33 0 13 -20 63 -45 111 -25 48 -45 92 -45
98 0 13 -44 86 -132 218 -36 55 -92 147 -124 205 -90 164 -223 387 -238 399
-7 6 4 -24 25 -66z"/>
<path d="M9072 10480 c-18 -4 -128 -11 -244 -15 -142 -5 -222 -12 -244 -21
-19 -8 -45 -14 -59 -14 -30 0 -44 -26 -24 -44 8 -7 32 -18 55 -24 99 -28 162
-114 173 -236 l6 -69 43 -15 c52 -17 55 -23 122 -232 29 -91 61 -185 71 -210
10 -25 23 -64 29 -87 9 -37 37 -74 84 -111 10 -8 16 -28 16 -53 0 -22 8 -56
19 -77 10 -20 21 -50 25 -66 4 -16 30 -70 58 -120 28 -50 63 -113 77 -141 35
-64 83 -132 197 -275 93 -117 172 -190 205 -190 38 0 99 32 103 54 24 124 28
458 8 576 -6 36 -14 124 -18 195 -5 102 -11 143 -30 191 -13 33 -26 82 -29
110 -4 27 -12 72 -20 99 -8 28 -21 84 -30 125 -33 158 -78 302 -107 339 -10
13 -18 32 -18 42 0 11 -9 36 -20 56 -11 21 -20 43 -20 49 0 21 -58 139 -77
157 -17 15 -27 16 -78 6 -41 -7 -76 -7 -120 0 -69 12 -105 13 -153 1z m244
-53 l82 1 15 -36 c8 -20 29 -73 46 -117 18 -44 42 -102 55 -130 48 -101 44
-88 96 -310 11 -49 25 -108 31 -130 6 -22 14 -67 19 -100 5 -33 18 -80 29
-105 13 -28 21 -66 21 -102 0 -32 4 -88 10 -125 26 -184 34 -281 32 -428 -1
-145 -12 -289 -23 -299 -21 -19 -49 -13 -87 16 -42 34 -173 193 -253 308 -43
62 -59 88 -141 240 -47 85 -85 184 -92 237 -7 55 -30 100 -56 108 -29 9 -70
111 -167 420 -37 120 -53 156 -79 183 -18 17 -41 32 -53 32 -18 0 -21 6 -21
49 0 74 -67 202 -123 235 -27 16 -36 27 -27 30 8 2 105 7 215 11 110 3 218 10
240 15 22 4 65 5 95 2 30 -4 92 -6 136 -5z"/>
<path d="M3363 10442 c-8 -20 -30 -72 -48 -115 -19 -43 -37 -98 -41 -122 -3
-24 -17 -59 -30 -76 -13 -18 -24 -41 -24 -51 0 -10 -4 -26 -10 -36 -5 -9 -14
-37 -19 -62 -5 -25 -22 -76 -36 -115 -28 -73 -40 -127 -55 -258 -7 -52 -16
-87 -30 -104 -13 -17 -20 -41 -20 -72 0 -25 -7 -98 -15 -161 -22 -175 -32
-337 -26 -420 l6 -75 58 1 c44 1 63 6 81 23 12 11 35 21 52 21 57 0 269 51
287 69 13 13 77 128 133 238 42 83 47 101 53 187 8 98 19 126 53 126 35 0 57
20 69 63 6 23 19 62 29 87 19 48 78 230 104 320 24 83 48 117 96 131 l40 12 0
57 c0 46 7 72 36 130 34 68 40 74 98 101 33 16 68 29 77 29 20 0 30 22 19 40
-13 20 -164 40 -314 40 -77 0 -201 4 -275 9 -75 6 -180 12 -234 15 l-98 6 -16
-38z m607 -42 c85 -1 163 -5 173 -8 16 -7 14 -10 -12 -30 -41 -30 -111 -172
-111 -226 0 -36 -4 -43 -33 -56 -56 -26 -71 -56 -152 -310 -25 -80 -53 -159
-61 -177 -8 -17 -14 -39 -14 -48 0 -28 -20 -55 -40 -55 -11 0 -34 -13 -51 -28
-29 -26 -31 -34 -39 -122 -10 -118 -17 -139 -76 -242 -26 -46 -57 -103 -70
-127 -26 -52 -52 -62 -218 -87 -61 -10 -117 -25 -144 -39 -25 -13 -50 -21 -55
-18 -12 7 0 347 13 394 5 18 13 80 16 138 6 80 12 112 26 131 11 15 22 56 28
100 16 130 37 223 63 285 13 33 28 76 32 95 12 62 37 129 50 140 8 7 19 37 26
68 12 60 18 78 65 182 l28 65 201 -12 c110 -6 270 -12 355 -13z"/>
<path d="M11588 9823 c-14 -34 -15 -132 -5 -473 4 -146 7 -312 6 -370 -3 -183
-2 -201 5 -390 3 -102 7 -319 7 -483 1 -291 2 -298 22 -312 29 -20 57 -19 56
3 0 9 2 408 4 886 5 839 3 916 -23 916 -17 0 -33 94 -27 165 4 60 3 75 -10 79
-22 9 -23 8 -35 -21z"/>
<path d="M6377 9328 c-9 -24 -36 -108 -60 -188 -25 -80 -66 -210 -91 -290 -24
-80 -50 -165 -56 -190 -13 -49 -48 -93 -95 -118 -41 -22 -189 -21 -275 2 -36
10 -101 22 -145 27 -44 5 -103 16 -132 24 -28 8 -73 15 -101 15 -27 0 -94 11
-148 25 -54 14 -123 25 -154 25 -30 1 -86 7 -125 16 -69 14 -203 32 -280 37
-58 3 -59 -26 -2 -89 201 -226 480 -624 645 -919 268 -479 401 -807 538 -1335
34 -134 94 -542 94 -649 1 -47 5 -117 10 -156 9 -72 -2 -472 -20 -715 -24
-319 -29 -370 -40 -450 -6 -47 -17 -119 -25 -160 -8 -41 -21 -118 -30 -170
-42 -254 -90 -433 -167 -627 l-40 -102 16 -63 c10 -35 18 -99 19 -143 l2 -80
45 2 c88 4 151 -7 176 -32 21 -22 24 -33 24 -107 0 -46 -4 -89 -9 -97 -11 -17
-136 -27 -173 -12 -41 16 -60 54 -66 132 -2 38 -8 72 -13 74 -11 7 -182 -78
-187 -92 -7 -23 122 -128 243 -199 44 -26 90 -57 102 -68 12 -12 56 -39 98
-61 42 -21 119 -67 172 -101 52 -35 103 -66 113 -69 23 -7 260 119 344 184 37
29 106 72 154 96 48 24 101 58 117 75 28 29 30 37 35 131 7 133 8 134 150 133
l108 -1 1 96 c1 53 6 112 11 131 16 56 12 91 -18 155 -55 116 -128 364 -162
550 -12 66 -28 154 -35 195 -33 178 -68 475 -87 730 -19 262 -16 839 6 1015
21 164 61 391 80 455 8 25 17 63 21 85 18 105 135 468 196 608 22 48 39 92 39
98 0 11 15 44 112 249 70 146 198 379 276 500 124 192 229 348 301 444 78 104
97 128 201 255 68 84 73 107 20 104 -74 -5 -218 -23 -290 -38 -41 -8 -96 -14
-122 -15 -26 0 -93 -11 -150 -25 -57 -14 -125 -25 -153 -25 -27 0 -69 -7 -92
-15 -23 -8 -79 -17 -125 -21 -46 -4 -90 -10 -99 -15 -38 -19 -195 -40 -257
-33 -86 9 -144 52 -161 121 -7 26 -44 147 -82 268 -143 446 -144 450 -166 453
-17 2 -24 -6 -36 -40z m104 -278 c17 -58 47 -150 65 -205 18 -55 45 -139 59
-187 24 -79 30 -90 75 -128 66 -56 140 -69 278 -50 54 7 109 19 124 26 15 8
53 14 85 14 32 0 74 5 93 10 19 6 81 17 138 25 56 8 140 24 186 35 46 11 110
20 142 20 33 1 86 8 119 16 67 17 205 33 205 23 0 -3 -25 -37 -55 -75 -199
-249 -353 -473 -542 -789 -150 -250 -361 -723 -451 -1010 -73 -233 -79 -256
-133 -505 -63 -291 -94 -697 -79 -1035 11 -261 28 -538 35 -580 2 -16 9 -73
15 -125 5 -52 14 -122 20 -155 5 -33 17 -107 25 -165 24 -157 73 -392 107
-505 16 -55 35 -121 42 -146 7 -25 30 -85 51 -133 l37 -87 -16 -71 c-9 -39
-16 -92 -16 -119 l0 -49 -79 0 c-65 0 -84 -4 -112 -23 -48 -32 -59 -60 -59
-155 0 -81 -1 -84 -32 -113 -18 -16 -70 -48 -115 -70 -45 -23 -111 -64 -147
-92 -36 -29 -116 -79 -179 -111 l-115 -59 -59 36 c-32 20 -91 56 -131 79 -41
24 -97 58 -125 75 -128 80 -130 83 -59 83 106 0 147 55 139 186 -7 122 -51
163 -182 172 l-70 4 0 47 c0 25 -7 78 -14 118 -13 69 -13 75 9 130 45 115 81
219 90 258 5 22 22 92 39 155 16 63 35 153 41 200 6 46 13 87 15 90 17 27 64
399 81 630 48 677 35 1033 -52 1505 -43 232 -164 638 -239 800 -8 17 -28 66
-46 110 -40 102 -206 441 -254 520 -20 33 -48 82 -62 110 -68 133 -357 551
-511 740 -57 70 -102 129 -100 131 6 5 136 -13 208 -30 36 -9 93 -16 128 -16
35 0 107 -11 160 -24 53 -14 126 -28 162 -31 36 -4 90 -13 121 -21 31 -8 80
-14 108 -14 28 0 68 -6 88 -14 100 -38 283 -43 358 -12 55 24 103 82 120 144
9 31 29 98 45 147 16 50 54 170 85 269 30 98 58 183 62 189 7 12 25 -36 74
-193z m-816 -6198 c-5 -5 -75 48 -75 57 0 4 15 14 33 23 l32 15 7 -46 c4 -25
5 -47 3 -49z"/>
<path d="M10787 8153 c-55 -5 -66 -20 -42 -56 10 -16 20 -63 25 -124 17 -180
21 -190 65 -179 47 12 55 30 54 129 -1 51 -4 124 -8 162 -7 78 -3 75 -94 68z
m46 -120 c4 -38 7 -79 6 -93 -1 -46 -18 9 -18 62 -1 26 -5 58 -11 72 -7 20 -6
26 4 26 9 0 15 -21 19 -67z"/>
<path d="M1840 8081 l0 -68 81 -42 c44 -23 86 -40 92 -38 10 3 34 113 40 182
2 24 -29 32 -135 34 l-78 1 0 -69z m121 13 l36 -6 -9 -41 c-5 -23 -10 -42 -11
-44 -2 -1 -22 8 -45 19 -34 18 -42 27 -42 50 0 30 7 32 71 22z"/>
<path d="M1837 7633 c-16 -15 -7 -72 12 -83 28 -14 42 -13 78 10 29 18 32 22
22 44 -13 29 -92 49 -112 29z"/>
<path d="M10623 7262 c-26 -21 -55 -52 -63 -68 -8 -16 -24 -42 -36 -59 -39
-54 -93 -159 -129 -250 -20 -50 -42 -103 -50 -120 -7 -16 -23 -57 -36 -90 -12
-33 -25 -64 -29 -70 -3 -5 -15 -32 -25 -60 -10 -27 -26 -68 -35 -90 -18 -40
-409 -1010 -460 -1140 -95 -242 -123 -313 -168 -420 -72 -175 -146 -357 -187
-464 -20 -52 -45 -113 -55 -135 -10 -23 -33 -77 -50 -121 -17 -44 -45 -109
-60 -145 -16 -36 -40 -94 -54 -130 -51 -135 -148 -336 -172 -357 -25 -23 -29
-23 -304 -23 -153 0 -285 -3 -294 -6 -34 -13 -17 -41 43 -68 32 -14 64 -26 71
-26 18 0 227 -65 390 -122 314 -109 378 -130 462 -152 48 -13 92 -20 98 -16 7
4 22 24 34 43 50 84 112 186 246 407 78 129 183 303 233 385 49 83 99 166 112
185 35 56 233 379 313 513 92 152 221 361 277 448 24 36 52 83 63 105 11 21
60 88 109 148 l88 110 0 760 0 761 -38 79 c-20 43 -51 96 -68 117 -31 39 -135
109 -162 109 -8 0 -37 -17 -64 -38z m121 -47 c48 -28 108 -108 137 -184 18
-49 19 -84 19 -797 l0 -745 -84 -107 c-46 -59 -89 -118 -96 -132 -7 -14 -31
-54 -55 -90 -23 -36 -62 -96 -85 -135 -24 -38 -54 -87 -68 -107 -13 -20 -34
-54 -46 -75 -12 -21 -30 -53 -41 -72 -28 -47 -293 -479 -320 -521 -12 -19 -31
-51 -43 -70 -11 -19 -72 -120 -135 -225 -64 -104 -142 -235 -175 -290 -32 -55
-89 -149 -127 -210 -37 -60 -73 -119 -79 -130 -6 -12 -29 -48 -51 -82 -37 -57
-42 -61 -70 -56 -36 7 -167 50 -540 177 l-280 95 156 1 c245 0 294 17 339 115
63 138 149 338 192 445 27 69 71 177 98 240 26 63 85 207 130 320 45 112 98
245 119 295 21 49 57 140 81 200 23 61 62 157 86 215 23 58 84 209 134 335 92
228 292 727 355 880 200 493 192 475 283 620 45 72 87 115 110 115 7 0 33 -11
56 -25z"/>
<path d="M2120 7241 c-8 -5 -54 -27 -102 -50 -102 -49 -126 -74 -184 -196
l-42 -90 -6 -615 -6 -615 36 -75 c19 -41 39 -77 43 -80 4 -3 21 -30 36 -60 35
-67 92 -149 117 -170 10 -8 28 -42 41 -75 13 -33 36 -77 50 -98 14 -21 31 -64
37 -95 6 -31 13 -66 15 -77 3 -11 24 -49 47 -84 24 -35 76 -113 115 -175 40
-61 76 -115 81 -121 4 -5 21 -32 37 -58 66 -106 155 -244 182 -282 15 -22 57
-85 91 -140 61 -96 122 -189 208 -320 21 -33 73 -114 114 -180 72 -115 97
-155 235 -368 33 -51 68 -94 78 -95 23 -5 192 43 244 68 61 29 210 74 478 146
256 68 314 90 341 132 32 49 20 51 -316 54 -354 3 -328 -4 -381 107 -18 36
-42 82 -54 101 -12 19 -31 62 -43 95 -23 65 -85 221 -107 270 -7 17 -34 84
-60 150 -50 128 -176 434 -205 500 -30 66 -154 372 -200 490 -23 61 -57 148
-76 195 -18 47 -45 117 -58 155 -14 39 -59 158 -101 265 -42 107 -91 236 -109
285 -36 96 -160 417 -176 450 -8 19 -46 108 -125 296 -41 97 -126 249 -177
317 -40 52 -63 62 -98 43z m68 -88 c68 -88 181 -326 307 -643 70 -177 93 -238
242 -625 35 -93 80 -208 98 -255 18 -47 36 -96 40 -110 7 -24 164 -427 186
-480 6 -14 26 -61 44 -105 18 -44 57 -136 85 -205 126 -303 204 -494 250 -611
27 -69 61 -153 75 -185 15 -32 34 -81 42 -109 8 -27 30 -77 48 -110 18 -33 50
-93 71 -134 58 -112 66 -115 379 -121 l250 -5 -105 -29 c-58 -16 -170 -46
-250 -68 -191 -52 -333 -96 -395 -124 -27 -12 -77 -30 -110 -39 -33 -9 -67
-18 -76 -21 -11 -3 -34 25 -79 98 -35 57 -103 164 -151 238 -48 74 -105 164
-128 200 -23 36 -83 129 -134 208 -50 78 -114 179 -142 223 -27 45 -59 93 -71
107 -11 15 -55 81 -97 147 -155 246 -273 428 -303 468 -44 60 -60 95 -68 150
-9 57 -30 111 -60 152 -13 17 -30 52 -39 78 -9 27 -37 71 -62 100 -26 28 -55
68 -66 88 -10 21 -44 80 -74 131 l-55 93 2 626 3 626 44 88 c39 76 52 92 97
121 52 33 138 72 161 73 6 1 24 -16 41 -36z"/>
<path d="M7240 2875 c-18 -13 -45 -38 -59 -54 -14 -17 -57 -47 -96 -67 -38
-20 -84 -51 -100 -68 -43 -44 -83 -71 -177 -118 -45 -22 -89 -49 -97 -59 -25
-29 -77 -63 -201 -130 -63 -34 -128 -74 -145 -89 -16 -15 -46 -33 -65 -40 -33
-11 -41 -10 -90 15 -30 15 -79 43 -108 61 -29 19 -56 34 -61 34 -5 0 -14 7
-21 15 -6 8 -61 41 -120 75 -60 33 -121 71 -137 84 -15 13 -64 45 -108 70 -43
26 -85 56 -93 67 -7 10 -19 19 -25 19 -7 0 -41 25 -77 56 -46 39 -71 54 -85
50 -107 -28 -145 -40 -145 -46 0 -5 21 -19 48 -32 26 -13 97 -50 157 -82 99
-53 146 -81 255 -151 19 -13 80 -46 135 -75 363 -191 335 -173 335 -205 0 -23
-41 -65 -63 -65 -15 0 -150 70 -172 90 -11 10 -76 48 -145 85 -69 37 -129 71
-135 75 -5 4 -64 35 -129 70 -66 34 -144 79 -174 99 -30 20 -98 59 -150 88
-53 28 -102 59 -109 69 -9 12 -16 14 -25 7 -7 -6 -44 -16 -83 -23 -38 -6 -93
-20 -120 -31 -28 -10 -56 -19 -62 -19 -34 0 -250 -110 -323 -164 -30 -22 -71
-52 -90 -65 -63 -43 -198 -195 -245 -276 -19 -34 -22 -37 62 70 47 59 70 77
158 126 53 29 70 33 156 37 l97 4 93 -50 c52 -27 139 -73 194 -102 55 -29 105
-56 110 -61 9 -6 77 -44 345 -191 30 -17 73 -40 95 -51 52 -27 65 -41 65 -66
0 -18 -36 -39 -202 -122 -232 -115 -306 -147 -363 -156 -22 -3 -71 -21 -110
-40 -40 -19 -85 -33 -106 -33 -21 0 -57 -8 -81 -18 -84 -36 -209 -13 -255 48
-6 8 -14 12 -18 9 -12 -13 79 -112 110 -121 67 -18 156 -17 202 4 26 11 56 18
72 15 17 -4 51 6 100 30 42 20 90 35 110 35 23 0 79 21 156 58 66 32 148 70
183 84 35 15 113 52 175 82 119 59 173 70 205 41 9 -9 29 -20 45 -26 19 -7 27
-18 27 -35 0 -31 -10 -38 -105 -79 -44 -19 -127 -58 -185 -87 -141 -69 -281
-130 -302 -130 -10 0 -48 -13 -85 -29 -118 -51 -202 -81 -226 -81 -12 0 -49
-8 -83 -19 -45 -13 -83 -17 -145 -15 -46 2 -93 4 -104 4 -29 0 -135 39 -213
78 -139 70 -265 288 -273 472 -1 31 -2 29 -10 -15 -10 -57 -3 -109 16 -125 8
-7 22 -35 31 -63 43 -129 202 -380 324 -512 20 -22 64 -74 98 -115 73 -91 384
-406 467 -474 33 -28 95 -84 137 -125 l77 -75 62 30 c34 16 76 39 93 52 40 30
274 142 295 142 10 0 46 23 81 51 55 45 285 166 423 222 20 9 37 21 37 27 0
15 107 63 125 56 9 -3 32 10 58 32 44 38 70 52 172 97 33 14 69 35 80 45 11
10 46 31 77 45 l57 26 73 -37 c40 -20 98 -56 128 -80 30 -23 87 -60 125 -82
39 -21 122 -67 185 -102 63 -35 133 -77 155 -94 41 -32 58 -42 125 -77 41 -22
39 -22 175 6 39 8 117 24 175 35 58 12 119 25 135 30 17 5 68 19 115 30 259
65 534 160 692 241 96 48 113 49 127 7 44 -134 76 -397 69 -565 -3 -57 -1
-103 4 -103 26 0 4 421 -33 619 -10 56 -19 109 -19 115 0 7 15 33 33 57 55 72
83 166 73 246 -10 89 -21 81 -21 -15 -1 -92 -22 -158 -64 -196 -25 -23 -57 -7
-64 31 -8 43 -35 120 -73 208 -19 44 -34 83 -34 86 0 13 -110 238 -118 243 -5
3 -27 40 -48 81 -21 42 -52 91 -67 108 -16 18 -35 43 -42 57 -24 46 -106 164
-148 215 -55 65 -289 305 -298 305 -4 0 -29 20 -55 46 -27 25 -65 53 -85 64
-19 10 -41 26 -48 34 -8 9 -19 16 -26 16 -6 0 -20 9 -30 20 -10 11 -24 20 -30
20 -7 0 -25 10 -40 22 -24 19 -28 20 -36 5 -5 -9 -60 -41 -122 -73 -61 -31
-125 -69 -142 -84 -16 -16 -88 -58 -160 -95 -71 -36 -155 -80 -185 -96 -30
-17 -117 -62 -193 -101 -76 -39 -143 -78 -150 -87 -7 -10 -65 -43 -129 -76
l-116 -58 -46 17 c-82 32 -118 76 -83 104 7 6 143 77 303 158 159 81 300 157
314 169 14 13 44 32 67 44 23 11 59 32 80 47 21 14 84 48 141 76 56 28 102 53
102 56 0 13 -113 132 -126 132 -8 0 -14 5 -14 10 0 16 -14 12 -50 -15z m-867
-756 c80 -41 93 -63 55 -99 -32 -29 -83 -26 -140 10 -60 38 -66 73 -15 95 43
19 51 18 100 -6z m2044 -248 c10 -5 37 -18 61 -27 23 -10 42 -21 42 -25 0 -4
13 -15 28 -26 54 -34 232 -254 232 -286 0 -5 9 -22 20 -37 12 -16 27 -48 35
-72 7 -24 30 -86 49 -138 44 -116 44 -133 7 -159 -74 -53 -330 -73 -501 -40
-50 10 -84 18 -215 50 -22 6 -69 23 -105 38 -36 16 -83 34 -105 41 -39 12
-295 129 -462 211 -44 22 -84 46 -87 54 -13 36 24 65 85 65 16 0 92 -32 176
-75 80 -41 154 -75 163 -75 9 0 58 -21 110 -46 52 -26 122 -54 155 -64 33 -10
79 -27 101 -38 36 -19 125 -41 244 -63 51 -9 129 11 152 38 11 14 10 15 -12 7
-32 -12 -192 -10 -250 3 -25 5 -67 20 -93 32 -26 12 -76 31 -110 42 -34 11
-78 28 -97 38 -63 34 -115 58 -156 71 -21 7 -94 39 -161 72 -117 56 -123 61
-123 89 0 29 6 33 108 81 59 27 139 65 177 83 39 19 113 52 165 75 52 22 122
54 155 71 53 26 68 29 127 25 36 -3 74 -9 85 -15z"/>
<path d="M8290 1730 c-8 -5 -49 -24 -90 -41 -179 -75 -260 -119 -260 -139 0
-12 8 -23 18 -26 9 -4 69 -30 132 -59 63 -29 129 -56 145 -60 17 -3 50 -17 75
-29 69 -35 161 -51 212 -38 24 6 64 14 90 17 25 3 49 12 52 20 8 22 -39 105
-109 190 -82 99 -106 121 -173 151 -58 26 -70 28 -92 14z m131 -95 c28 -24
126 -136 157 -182 30 -42 28 -53 -11 -53 -17 0 -47 -4 -66 -10 -42 -12 -101 1
-187 42 -34 15 -69 28 -80 28 -27 0 -205 91 -198 101 3 5 11 9 17 9 7 0 70 27
141 59 l129 59 37 -16 c20 -10 48 -26 61 -37z"/>
<path d="M4450 2214 c-96 -44 -196 -155 -244 -274 -30 -73 -32 -106 -11 -177
16 -53 32 -68 56 -52 8 5 53 9 102 9 75 0 89 -3 105 -20 44 -52 67 -70 86 -70
46 0 204 38 244 59 23 12 65 26 94 31 28 6 108 37 177 70 154 73 159 84 60
140 -284 161 -569 310 -592 309 -12 0 -47 -11 -77 -25z m249 -111 c80 -42 162
-86 181 -98 19 -12 79 -45 133 -74 53 -29 97 -55 97 -57 0 -12 -190 -92 -242
-102 -31 -6 -79 -22 -106 -36 -28 -14 -76 -30 -108 -36 -33 -5 -71 -13 -85
-16 -22 -5 -31 1 -57 34 -40 51 -95 67 -197 59 l-73 -5 -7 47 c-17 123 170
361 283 361 23 0 81 -25 181 -77z"/>
<path d="M4098 2085 c-12 -27 -32 -33 -45 -12 -10 16 -22 -59 -21 -143 l0 -65
12 55 c7 30 27 85 44 123 17 37 29 67 26 67 -2 0 -10 -11 -16 -25z"/>
</g>
</svg>
