<?xml version="1.0" standalone="no"?>
<!DOCTYPE svg PUBLIC "-//W3C//DTD SVG 20010904//EN"
 "http://www.w3.org/TR/2001/REC-SVG-20010904/DTD/svg10.dtd">
<svg version="1.0" xmlns="http://www.w3.org/2000/svg"
 width="500.000000pt" height="500.000000pt" viewBox="0 0 500.000000 500.000000"
 preserveAspectRatio="xMidYMid meet">

<g transform="translate(0.000000,500.000000) scale(0.100000,-0.100000)"
fill="#000000" stroke="none">
<path d="M2314 4934 c-15 -23 -16 -33 -5 -89 15 -77 7 -130 -17 -119 -10 5
-33 8 -53 8 -29 0 -43 -7 -63 -31 -46 -55 -75 -58 -541 -57 -426 0 -630 11
-732 40 -86 24 -116 19 -169 -27 -103 -89 -264 -260 -311 -330 -27 -41 -70
-113 -95 -161 -26 -48 -68 -117 -95 -154 -26 -36 -81 -116 -121 -177 -84 -128
-91 -161 -43 -205 l30 -27 3 -226 3 -226 60 -77 c33 -42 73 -93 88 -114 l28
-39 -20 -59 c-17 -52 -23 -60 -51 -65 -59 -12 -111 -82 -149 -198 -25 -76 -28
-205 -7 -292 18 -80 122 -270 234 -429 21 -30 87 -125 145 -210 59 -85 171
-240 251 -345 132 -175 143 -192 130 -210 -8 -11 -14 -30 -14 -42 0 -12 -9
-38 -19 -56 -30 -54 -77 -202 -102 -322 -19 -89 -24 -142 -24 -275 0 -153 2
-169 24 -218 28 -62 62 -92 105 -92 55 0 76 23 76 85 0 30 -4 56 -9 60 -5 3
-15 30 -22 60 -9 42 -9 70 0 132 16 95 63 213 93 232 64 40 283 152 344 176
38 15 132 56 209 90 77 35 153 67 170 71 l29 7 -40 -39 c-22 -21 -49 -50 -60
-64 -11 -14 -29 -30 -39 -36 -25 -14 -32 -47 -34 -155 -1 -80 2 -92 33 -155
29 -59 105 -173 140 -210 103 -110 184 -191 240 -242 59 -53 74 -62 107 -62
39 0 76 12 119 40 14 9 45 25 70 35 25 11 59 29 75 41 37 27 192 104 210 104
7 0 18 7 25 15 7 9 36 27 64 40 l50 24 46 -28 c25 -16 71 -43 103 -62 32 -19
75 -44 95 -57 33 -21 46 -23 117 -18 80 5 300 59 393 95 l50 20 6 -22 c3 -12
6 -59 6 -104 0 -98 11 -130 45 -139 44 -11 75 4 92 44 13 30 14 62 9 179 -6
118 -4 151 10 193 22 66 14 147 -17 173 -12 9 -35 17 -53 17 -28 0 -34 6 -61
58 -48 92 -133 212 -198 279 -32 34 -66 71 -74 82 -8 12 -21 21 -29 21 -59 0
-143 119 -129 182 15 76 17 124 3 136 -8 6 -43 12 -78 14 l-65 3 -5 46 c-8 68
12 360 36 524 21 146 24 159 37 146 6 -6 33 -11 59 -11 46 0 48 1 69 42 59
115 113 153 244 167 72 8 93 15 108 32 11 14 17 16 17 7 0 -18 -69 -128 -81
-128 -5 0 -15 -15 -22 -32 -8 -18 -21 -39 -30 -47 -10 -7 -17 -19 -17 -26 0
-7 -20 -37 -44 -67 -23 -29 -46 -63 -50 -74 -3 -12 -26 -47 -51 -78 -24 -31
-47 -65 -50 -76 -3 -10 -12 -21 -20 -24 -23 -8 -29 -73 -16 -180 31 -258 40
-310 88 -469 31 -103 52 -125 148 -152 33 -9 112 -41 176 -70 64 -30 156 -69
205 -88 85 -33 278 -129 355 -175 19 -12 41 -32 47 -44 68 -138 89 -293 52
-390 -36 -94 -25 -148 35 -168 51 -17 84 3 118 70 79 159 34 584 -92 873 -12
27 -21 59 -21 72 0 13 -6 28 -14 32 -11 6 34 74 189 288 492 675 553 774 575
931 14 97 7 159 -31 259 -26 69 -96 145 -133 145 -16 0 -29 7 -33 18 -3 9 -16
41 -29 70 l-24 53 86 107 c47 59 92 121 100 139 11 24 14 85 14 245 l0 214 30
26 c59 52 36 107 -169 393 -28 39 -73 113 -101 165 -61 117 -127 205 -225 303
-41 41 -75 81 -75 90 0 18 -116 115 -148 123 -12 4 -53 -1 -90 -11 -134 -33
-381 -47 -797 -43 -422 5 -441 7 -483 59 -18 23 -32 29 -62 29 -21 0 -43 -6
-50 -15 -19 -23 -29 -18 -47 20 -14 30 -15 41 -3 90 16 69 6 106 -33 119 -41
15 -77 -3 -101 -49 -30 -58 -29 -191 2 -259 30 -66 23 -146 -16 -164 -17 -8
-29 -9 -36 -2 -5 5 -20 10 -32 10 -21 0 -23 6 -26 53 -2 32 4 73 15 107 37
109 31 227 -15 285 -15 20 -28 25 -63 25 -37 0 -48 -5 -61 -26z m122 -31 c28
-56 26 -192 -2 -254 -18 -37 -20 -57 -15 -109 6 -61 7 -65 36 -71 17 -4 37
-10 46 -13 10 -4 20 -3 24 3 3 6 17 11 29 11 21 0 24 5 28 65 5 54 2 75 -18
123 -51 125 -19 282 57 282 38 0 54 -30 44 -84 -15 -79 -11 -112 18 -150 33
-42 44 -45 53 -11 9 36 58 34 99 -4 52 -50 80 -54 475 -59 382 -5 622 6 760
35 145 30 139 31 208 -27 34 -28 62 -58 62 -66 0 -7 35 -48 78 -91 97 -97 175
-202 232 -313 24 -47 62 -110 84 -140 23 -30 78 -111 124 -180 69 -104 82
-131 80 -159 -2 -22 -10 -38 -23 -45 -11 -6 -22 -12 -25 -14 -3 -2 -7 -111
-10 -241 l-5 -238 -43 -54 c-23 -30 -67 -86 -97 -125 l-55 -70 33 -79 c24 -57
38 -81 52 -83 52 -8 63 -15 94 -59 93 -132 104 -321 27 -478 -42 -84 -156
-257 -298 -452 -220 -302 -429 -594 -434 -608 -4 -8 1 -18 10 -21 9 -3 16 -16
16 -28 0 -11 10 -41 21 -66 93 -200 156 -560 130 -734 -16 -100 -53 -184 -86
-192 -13 -3 -36 0 -52 8 -37 17 -41 64 -14 146 32 94 26 180 -22 322 -29 84
-70 126 -183 181 -49 24 -100 51 -114 59 -14 9 -63 32 -110 50 -47 18 -148 61
-226 96 -77 34 -166 70 -197 79 -87 25 -103 43 -136 153 -38 128 -47 169 -72
352 -32 235 -34 227 67 355 17 22 39 56 49 75 10 19 24 42 31 50 39 42 63 79
69 103 4 15 13 27 20 27 8 0 19 16 25 35 6 19 18 38 25 42 19 11 85 123 85
145 0 9 9 22 19 28 12 6 27 34 38 71 10 34 26 65 35 70 10 5 25 34 34 65 8 30
26 66 39 80 13 14 29 40 34 57 5 18 35 111 65 208 31 97 56 186 56 197 0 18
-6 22 -35 22 -58 0 -152 -37 -234 -92 -122 -83 -313 -284 -390 -411 l-24 -38
32 -32 c43 -45 130 -96 191 -112 73 -19 100 -39 100 -74 0 -40 -20 -52 -97
-61 -92 -10 -122 -19 -164 -47 -37 -24 -85 -86 -107 -136 -11 -25 -16 -28 -54
-25 -38 3 -43 6 -51 37 -5 19 -12 30 -17 25 -15 -15 -48 -231 -65 -423 -19
-220 -21 -341 -5 -371 11 -20 17 -21 68 -16 31 4 63 2 71 -3 13 -9 12 -51 -4
-128 -11 -51 35 -142 89 -176 24 -15 46 -27 49 -27 4 0 43 -38 88 -85 82 -86
159 -193 214 -297 28 -54 32 -58 66 -58 20 0 42 -7 49 -15 21 -25 24 -100 6
-154 -13 -40 -15 -77 -10 -198 6 -167 -1 -196 -49 -201 -48 -6 -54 8 -59 138
-2 66 -7 122 -11 126 -3 3 -39 -5 -79 -20 -149 -53 -337 -96 -418 -96 -35 0
-58 8 -100 36 -30 19 -77 47 -105 61 -27 14 -65 36 -86 50 l-36 24 -54 -27
c-29 -15 -58 -31 -64 -36 -5 -5 -62 -34 -125 -66 -63 -32 -164 -84 -223 -115
-163 -86 -155 -88 -329 86 -161 159 -220 233 -279 345 l-41 77 4 100 4 100 79
81 c89 90 178 145 276 172 58 16 63 20 88 67 26 51 29 81 16 179 -9 61 1 69
77 60 50 -5 58 -3 67 14 22 41 5 343 -34 607 -25 169 -45 222 -58 155 -6 -28
-10 -30 -50 -30 -40 0 -45 3 -61 36 -53 112 -149 174 -270 174 -19 0 -46 4
-60 10 -22 8 -26 16 -26 49 0 46 10 56 75 72 65 15 161 68 203 112 l33 34 -22
39 c-73 127 -288 345 -425 432 -42 27 -66 33 -140 41 -49 5 -92 7 -96 5 -8 -5
-3 -27 28 -129 55 -180 78 -243 109 -300 17 -33 38 -78 45 -100 7 -22 23 -53
36 -68 13 -16 24 -34 24 -41 0 -6 20 -47 45 -91 25 -44 48 -90 52 -103 3 -12
11 -26 19 -30 12 -7 104 -147 104 -159 0 -7 62 -93 88 -121 12 -14 22 -29 22
-33 0 -5 8 -17 18 -27 10 -10 28 -35 41 -56 13 -21 35 -50 47 -64 29 -31 31
-75 9 -241 -37 -279 -85 -469 -127 -508 -13 -11 -50 -28 -83 -38 -33 -9 -118
-43 -190 -75 -71 -32 -161 -70 -200 -86 -88 -34 -330 -158 -370 -189 -30 -22
-37 -33 -68 -105 -42 -95 -54 -260 -24 -319 20 -39 23 -111 5 -129 -7 -7 -28
-12 -47 -12 -59 0 -93 64 -110 201 -20 170 43 509 125 670 13 27 24 59 24 72
0 14 7 30 15 37 9 7 14 19 11 26 -5 12 -87 124 -202 274 -172 225 -433 613
-512 760 -57 108 -72 167 -72 283 0 108 24 186 84 274 22 34 36 44 68 50 39 8
42 11 68 79 l27 70 -94 119 -93 118 0 216 c0 119 -3 225 -6 236 -3 12 -15 25
-27 30 -16 7 -23 20 -25 45 -3 36 15 66 194 326 33 49 76 121 95 159 56 112
116 193 220 298 54 53 99 101 101 105 2 4 28 28 60 55 63 52 88 57 174 33 101
-28 322 -40 744 -40 459 0 486 3 542 65 32 35 72 39 88 8 15 -27 36 -10 52 42
9 30 8 51 -2 93 -7 30 -10 66 -6 80 6 23 11 26 50 26 41 0 45 -3 62 -37z
m1354 -1755 c0 -7 -30 -105 -65 -218 -42 -131 -72 -210 -84 -220 -11 -8 -27
-40 -36 -70 -10 -30 -26 -62 -36 -71 -10 -9 -27 -43 -38 -75 -12 -32 -30 -68
-41 -78 -20 -20 -20 -20 -20 5 0 41 -26 66 -88 84 -73 21 -161 68 -201 107
l-31 30 52 77 c64 93 260 292 348 351 107 73 240 116 240 78z m-2372 -54 c162
-95 447 -402 428 -460 -10 -31 -107 -91 -192 -120 -43 -14 -85 -31 -91 -36
-18 -14 -17 -103 1 -117 8 -7 53 -16 101 -21 122 -13 203 -64 241 -156 7 -17
19 -36 27 -43 18 -14 62 -17 98 -7 l26 7 16 -103 c26 -160 42 -340 42 -483 l0
-130 -65 -3 c-35 -2 -70 -8 -78 -14 -14 -12 -12 -60 3 -135 5 -23 0 -46 -18
-86 -24 -53 -27 -55 -88 -74 -35 -11 -66 -18 -68 -17 -1 2 6 31 18 66 35 106
59 227 82 404 22 179 21 261 -3 275 -8 4 -28 27 -44 51 -16 24 -49 70 -74 103
-25 34 -51 70 -57 80 -7 11 -39 63 -72 115 -33 52 -65 102 -73 109 -14 16 -31
47 -98 181 -24 46 -48 90 -55 96 -7 7 -20 37 -30 66 -9 29 -23 60 -30 68 -27
31 -143 364 -145 415 0 7 25 9 75 4 55 -5 88 -15 123 -35z"/>
<path d="M2375 4875 c13 -39 17 -94 10 -141 -14 -98 -168 -209 -327 -236 -84
-15 -854 -18 -1181 -5 l-198 7 -66 -62 c-82 -79 -168 -198 -223 -308 -38 -77
-99 -171 -200 -309 -20 -27 -44 -65 -55 -84 l-19 -36 25 -19 24 -20 3 -237 3
-236 100 -125 c54 -69 99 -129 99 -133 0 -5 -11 -33 -24 -62 -63 -137 -106
-382 -91 -513 5 -50 16 -75 64 -150 75 -116 193 -307 291 -466 42 -69 108
-171 146 -228 38 -57 74 -111 79 -120 6 -9 40 -63 77 -119 62 -94 80 -134 61
-133 -5 1 -30 32 -58 71 -27 39 -92 127 -143 196 -95 130 -432 633 -432 646 0
2 -22 41 -49 86 -82 136 -113 222 -119 327 -4 76 -1 103 17 160 13 38 24 75
26 82 10 29 -13 8 -42 -40 -49 -82 -67 -157 -60 -255 7 -93 26 -145 101 -273
75 -130 404 -612 436 -640 3 -3 74 -97 158 -208 127 -170 151 -206 140 -219
-7 -9 -23 -13 -40 -11 -21 3 -28 0 -28 -12 0 -8 -13 -41 -29 -72 -85 -164
-151 -528 -121 -671 13 -62 36 -117 51 -117 13 0 11 6 -8 43 -22 41 -25 237
-5 312 14 52 63 159 85 185 20 24 258 147 382 198 69 29 207 89 283 123 35 16
85 34 110 41 90 21 98 29 127 125 41 134 40 132 13 101 -23 -27 -39 -33 -238
-91 -47 -14 -119 -37 -160 -51 -41 -14 -79 -26 -85 -26 -7 0 -33 35 -60 78
-52 83 -121 190 -220 342 -34 52 -83 129 -109 170 -27 41 -61 94 -77 117 -16
23 -29 50 -29 62 0 11 -32 73 -70 137 l-70 118 0 275 c0 311 5 333 74 386 20
15 36 31 36 35 0 5 -18 11 -40 15 -50 8 -61 28 -59 99 3 75 8 81 54 62 43 -18
45 -19 45 -8 0 4 -20 18 -45 30 l-45 22 0 76 0 77 92 -8 c51 -4 97 -9 101 -12
10 -6 10 -5 -26 -201 -15 -85 -20 -132 -13 -131 29 3 46 -3 71 -28 36 -36 115
-203 196 -413 139 -364 326 -828 374 -928 19 -39 35 -77 35 -82 0 -8 310 -16
310 -7 0 1 9 74 20 161 11 87 16 164 13 170 -8 12 -11 17 -48 62 -14 18 -25
37 -25 42 0 6 -6 15 -14 19 -7 4 -21 24 -31 43 -10 19 -23 38 -30 42 -6 4 -29
35 -50 70 -21 35 -41 65 -44 68 -3 3 -15 21 -25 40 -11 19 -26 41 -34 49 -7 7
-11 20 -8 27 3 8 -1 14 -9 14 -8 0 -27 24 -41 53 -14 28 -32 59 -39 67 -6 8
-22 42 -35 74 -13 33 -31 67 -41 77 -9 9 -24 40 -34 69 -10 29 -28 69 -41 88
-24 34 -89 225 -138 398 -30 107 -25 151 15 147 13 -2 70 -7 127 -13 113 -11
142 -22 240 -94 72 -54 229 -207 290 -284 53 -67 150 -232 174 -295 22 -57 6
-64 -32 -15 -64 81 -54 78 -97 37 -47 -46 -135 -93 -204 -109 -63 -15 -50 -25
43 -33 106 -10 172 -51 236 -146 l40 -60 7 47 c8 51 24 96 48 126 14 19 15 19
29 -10 16 -31 60 -222 77 -339 26 -170 50 -493 42 -572 -8 -79 1 -69 28 27 40
147 62 325 68 550 4 190 3 229 -16 338 -54 311 -204 627 -431 912 -38 47 -89
105 -114 130 -41 39 -58 70 -40 70 19 0 315 -44 414 -61 30 -5 84 -14 120 -19
36 -5 76 -12 90 -15 14 -3 30 -2 35 2 6 5 34 85 63 178 67 216 70 222 93 228
15 4 23 -2 30 -21 22 -56 119 -358 119 -369 0 -15 44 -28 60 -18 6 4 54 13
108 21 53 8 124 19 157 24 228 36 338 49 347 43 5 -2 -22 -39 -59 -81 -239
-270 -397 -548 -484 -857 -66 -233 -69 -591 -8 -917 19 -104 57 -244 64 -236
2 1 -1 26 -6 53 -11 56 12 409 37 580 27 189 63 345 84 368 18 20 70 -89 70
-144 0 -41 11 -36 45 22 53 90 155 149 259 149 65 0 75 15 20 29 -70 18 -164
67 -206 109 -23 21 -41 32 -46 27 -5 -6 -23 -29 -41 -52 -35 -45 -51 -54 -51
-26 0 24 104 216 158 293 25 36 98 117 161 181 150 149 263 224 393 260 l47
13 -54 56 c-30 30 -69 75 -87 100 -50 70 -140 255 -178 368 l-35 102 -34 0
c-19 0 -48 -4 -65 -9 -17 -5 -62 -15 -101 -22 -38 -7 -77 -16 -85 -20 -14 -8
-139 -25 -263 -36 -111 -10 -257 37 -257 82 0 37 19 45 56 24 19 -10 45 -19
57 -19 13 0 28 -5 34 -11 11 -11 156 -7 283 9 172 22 191 25 196 33 3 5 23 9
44 9 46 0 90 18 90 37 0 18 -36 53 -56 53 -8 0 -54 -11 -102 -24 -147 -41
-386 -61 -433 -36 -11 6 -46 12 -79 13 l-59 1 -20 46 -19 45 25 85 c20 68 26
114 30 230 3 80 3 142 -1 139 -3 -3 -11 -64 -16 -136 -11 -146 -46 -288 -70
-288 -16 0 -17 11 -6 185 5 95 -4 78 -19 -32 -9 -72 -30 -61 -45 25 -19 109
-30 147 -42 147 -12 0 -6 -145 11 -245 13 -78 -2 -94 -29 -33 -28 64 -47 165
-56 293 -5 83 -9 103 -16 85 -16 -41 1 -246 28 -357 l26 -101 -20 -44 c-19
-43 -19 -43 -74 -45 -31 -2 -68 -7 -83 -13 -60 -23 -267 -7 -420 32 -125 32
-130 33 -154 7 -11 -12 -21 -28 -21 -34 0 -17 46 -35 90 -35 21 0 41 -4 44 -9
6 -9 65 -17 186 -27 36 -3 74 -10 86 -15 24 -12 193 -7 245 8 20 6 51 17 68
26 29 14 32 14 41 -3 16 -30 12 -38 -29 -64 -51 -33 -145 -50 -229 -42 -113
10 -254 33 -312 50 -30 9 -72 16 -92 16 -20 0 -40 5 -43 10 -3 6 -27 10 -53
10 l-47 0 -29 -92 c-29 -93 -135 -320 -161 -347 -19 -20 -267 -83 -279 -71
-10 10 -11 131 -1 215 4 33 9 80 11 105 1 24 7 53 12 65 5 11 15 49 22 85 12
67 32 135 55 185 27 62 44 105 40 105 -2 0 -23 -33 -46 -72 -23 -40 -65 -111
-93 -158 -28 -47 -58 -101 -67 -120 -9 -19 -21 -46 -28 -60 -10 -22 -28 -73
-84 -240 -9 -25 -23 -71 -33 -103 -10 -32 -21 -60 -25 -63 -12 -7 -162 -34
-192 -34 l-28 0 1 221 1 220 -48 57 c-26 31 -50 59 -53 62 -3 3 -39 43 -80 89
-41 46 -76 79 -78 73 -1 -5 20 -54 47 -109 l51 -100 -7 -353 -6 -354 -55 -53
c-30 -30 -56 -52 -58 -51 -1 2 -4 243 -5 536 l-1 533 26 39 c14 22 45 52 67
67 l41 27 186 -2 c288 -4 564 -20 572 -33 6 -8 9 -8 15 1 5 8 22 10 49 6 22
-3 169 -13 326 -22 l285 -16 69 74 c232 248 379 459 393 565 7 52 -2 104 -23
129 -15 19 -16 19 -9 -1z m159 -882 c-18 -29 -34 -27 -34 5 0 37 10 46 29 27
12 -11 13 -20 5 -32z m-79 -83 c-5 -8 -11 -8 -17 -2 -6 6 -7 16 -3 22 5 8 11
8 17 2 6 -6 7 -16 3 -22z m120 0 c-5 -8 -11 -8 -17 -2 -6 6 -7 16 -3 22 5 8
11 8 17 2 6 -6 7 -16 3 -22z m-2081 -1194 c-8 -291 -9 -296 -58 -191 -50 105
-61 233 -31 344 18 64 71 139 87 123 6 -6 7 -113 2 -276z"/>
<path d="M2602 4855 c-16 -34 -14 -111 2 -158 37 -101 192 -310 376 -504 l78
-81 118 4 c66 3 137 9 159 14 22 5 121 12 220 16 99 3 239 10 310 15 265 18
602 23 637 9 45 -18 95 -67 108 -106 8 -23 9 -201 5 -586 -3 -304 -8 -554 -10
-557 -3 -2 -14 8 -26 23 -11 14 -38 36 -60 46 -37 19 -39 23 -39 68 0 26 -3
214 -6 417 l-6 370 52 108 c81 169 77 166 -152 -107 l-77 -91 5 -240 c2 -132
6 -297 9 -367 l5 -128 -40 -20 c-22 -11 -40 -23 -40 -25 0 -3 18 -2 41 1 39 7
41 6 37 -17 -2 -19 -12 -26 -46 -34 -24 -6 -43 -14 -43 -18 1 -4 17 -22 37
-40 72 -62 74 -72 74 -436 l0 -323 -38 -47 c-21 -25 -48 -62 -59 -81 -11 -19
-55 -91 -97 -160 -42 -69 -149 -246 -238 -393 l-162 -269 -39 6 c-65 11 -430
135 -460 157 l-28 20 7 -28 c4 -15 17 -62 30 -103 26 -84 41 -98 129 -119 28
-7 77 -25 110 -41 64 -30 198 -88 280 -122 60 -24 274 -129 330 -160 38 -23
84 -66 85 -81 0 -4 9 -26 19 -50 36 -80 46 -140 46 -267 0 -99 -4 -132 -18
-157 -19 -36 -22 -53 -7 -53 5 0 19 21 31 47 68 149 5 585 -117 822 -7 13 -10
30 -7 38 5 12 1 14 -15 8 -28 -8 -62 2 -62 19 0 16 164 247 554 780 103 141
229 339 253 400 31 76 35 197 9 273 -16 50 -73 139 -82 131 -2 -3 4 -29 15
-59 57 -168 31 -287 -117 -524 -64 -102 -174 -266 -271 -402 -36 -51 -133
-192 -216 -313 -82 -120 -156 -219 -162 -220 -7 0 -13 2 -13 5 0 11 187 312
328 530 36 55 99 152 140 215 41 63 113 172 159 241 97 146 105 174 92 339 -9
118 -38 228 -87 330 -20 41 -36 80 -35 86 0 6 48 71 106 146 l106 135 3 237
c3 233 3 238 26 256 12 10 22 22 22 27 0 9 -50 83 -176 265 -28 40 -72 114
-99 163 -62 117 -124 204 -206 287 l-66 68 -529 0 c-687 0 -890 15 -1019 74
-86 40 -142 87 -166 141 -21 45 -25 116 -8 147 6 11 9 22 6 24 -2 2 -9 -7 -15
-21z m1990 -2025 c33 -98 22 -230 -27 -330 -26 -51 -61 -97 -68 -90 -4 4 -11
502 -8 534 1 5 20 -7 43 -26 30 -25 47 -49 60 -88z"/>
<path d="M4540 2710 c0 -22 5 -40 10 -40 6 0 10 18 10 40 0 22 -4 40 -10 40
-5 0 -10 -18 -10 -40z"/>
<path d="M2800 4633 c0 -16 32 -39 80 -56 84 -30 249 -35 839 -29 l573 7 -50
42 -50 42 -53 -13 c-109 -28 -263 -38 -659 -43 -464 -5 -617 5 -662 45 -10 8
-18 11 -18 5z"/>
<path d="M771 4592 l-44 -39 149 -6 c218 -10 1056 -8 1149 2 79 8 158 33 183
57 16 16 16 30 0 16 -7 -5 -38 -17 -68 -27 -44 -13 -117 -18 -367 -22 -418 -8
-709 8 -928 51 -25 5 -37 0 -74 -32z"/>
<path d="M2239 4352 c-25 -31 -95 -111 -154 -176 l-109 -119 -118 6 c-72 4
-118 3 -118 -3 0 -5 29 -18 64 -29 131 -40 312 -52 459 -29 91 15 98 25 74
110 -20 69 -37 184 -37 247 0 28 -3 51 -7 51 -5 0 -29 -26 -54 -58z m67 -177
c20 -101 27 -145 23 -145 -2 0 -51 -6 -109 -14 -85 -11 -127 -12 -222 -2 -128
13 -165 26 -74 26 l58 0 63 66 c35 36 101 108 147 160 l83 95 8 -53 c4 -29 14
-89 23 -133z"/>
<path d="M2700 4330 c0 -82 -11 -152 -36 -232 -23 -71 -13 -82 90 -98 120 -18
293 -8 421 25 145 38 145 49 0 42 -81 -4 -128 -2 -146 6 -29 13 -165 156 -255
267 -31 39 -60 70 -65 70 -5 0 -9 -36 -9 -80z m100 -50 c35 -41 98 -110 140
-152 l77 -78 84 -1 c70 -1 79 -2 54 -11 -60 -20 -257 -35 -340 -26 -107 11
-132 17 -138 31 -3 7 4 46 15 87 11 41 22 112 25 158 3 46 9 79 13 75 4 -4 36
-42 70 -83z"/>
<path d="M2561 4374 c0 -11 3 -14 6 -6 3 7 2 16 -1 19 -3 4 -6 -2 -5 -13z"/>
<path d="M4319 4135 c-3 -2 -111 -8 -241 -13 -130 -6 -241 -13 -247 -17 -12
-7 7 -44 89 -175 47 -75 113 -218 126 -275 4 -16 22 -65 41 -108 18 -43 33
-88 33 -100 0 -12 7 -40 16 -64 13 -33 24 -45 50 -53 19 -7 40 -10 47 -7 9 3
12 61 12 239 l0 235 123 142 c68 78 125 148 128 156 9 22 -49 45 -114 45 -32
0 -61 -2 -63 -5z m140 -24 c7 -5 12 -13 10 -19 -4 -11 -110 -137 -190 -228
-26 -29 -50 -67 -54 -85 -4 -18 -4 -124 0 -236 8 -217 8 -215 -40 -197 -18 7
-45 66 -45 99 0 13 -9 45 -21 72 -12 26 -32 80 -44 118 -36 105 -91 231 -123
278 -50 73 -103 169 -97 175 3 3 106 10 228 14 122 4 227 10 232 12 19 8 130
6 144 -3z"/>
<path d="M499 4097 c-19 -12 -35 -29 -37 -37 -1 -8 58 -84 132 -168 l133 -154
-5 -205 -5 -206 39 6 c21 4 49 7 61 7 16 0 28 11 43 40 11 21 20 47 20 57 0
20 33 125 61 193 10 25 26 71 34 103 9 31 21 57 26 57 5 0 9 5 9 11 0 6 37 72
81 145 45 73 79 139 76 147 -6 16 -200 27 -472 27 -152 0 -164 -1 -196 -23z
m648 -10 c4 -5 -54 -109 -95 -169 -16 -24 -37 -59 -47 -78 -10 -18 -24 -40
-31 -48 -8 -7 -14 -21 -14 -29 0 -16 -53 -178 -71 -218 -5 -11 -15 -45 -23
-75 -24 -92 -33 -110 -58 -110 -13 0 -34 -3 -47 -7 l-24 -6 5 199 6 199 -57
65 c-31 36 -60 70 -66 76 -60 66 -132 149 -138 159 -4 9 3 22 20 36 28 22 29
22 332 16 167 -4 305 -8 308 -10z"/>
<path d="M3740 4108 c0 -7 7 -24 49 -120 11 -25 29 -88 40 -140 10 -51 24
-106 30 -122 6 -16 9 -37 5 -48 -3 -10 -1 -24 4 -31 12 -15 17 -149 13 -308
-1 -42 -4 -47 -43 -70 l-43 -24 34 -5 c33 -5 35 -7 37 -50 3 -49 -9 -94 -85
-332 -53 -168 -55 -172 -81 -203 -10 -11 -25 -45 -35 -75 -9 -30 -25 -62 -35
-71 -10 -9 -25 -38 -34 -65 -9 -27 -25 -60 -35 -74 -10 -15 -32 -50 -47 -79
-46 -85 -52 -94 -68 -103 -8 -4 -20 -24 -26 -43 -6 -19 -16 -35 -21 -35 -5 0
-16 -18 -25 -39 -8 -22 -22 -42 -30 -45 -8 -3 -14 -12 -14 -20 0 -8 -8 -21
-19 -28 -10 -7 -26 -29 -36 -48 -10 -19 -21 -37 -24 -40 -4 -3 -14 -16 -23
-30 -10 -14 -31 -44 -47 -67 l-30 -42 14 -128 c8 -70 18 -145 21 -165 l6 -38
144 0 144 0 26 58 c32 71 208 501 387 944 162 400 191 453 260 479 31 13 31 9
12 118 -8 46 -13 86 -10 89 2 2 -2 17 -10 33 -8 15 -15 42 -15 58 0 33 10 38
85 43 38 3 38 3 -35 28 -73 25 -74 26 -91 75 -10 28 -18 62 -18 76 -1 14 -10
45 -22 68 -11 24 -31 75 -44 115 -37 113 -75 193 -154 326 -102 172 -111 186
-111 178z"/>
<path d="M3440 4084 c-63 -6 -116 -12 -117 -13 -10 -4 0 -21 11 -21 27 0 65
-41 72 -78 4 -20 17 -46 29 -57 14 -12 35 -58 55 -120 18 -55 39 -105 46 -111
8 -6 21 -33 29 -60 21 -70 96 -194 157 -259 93 -98 117 -60 104 164 -9 145
-10 154 -29 221 -8 30 -22 87 -31 126 -9 40 -25 89 -34 110 -10 22 -25 54 -33
73 -15 33 -17 34 -79 35 -36 2 -117 -3 -180 -10z m267 -91 c61 -152 100 -363
102 -546 1 -83 -10 -120 -34 -111 -39 15 -195 257 -195 303 0 9 -11 32 -24 50
-13 18 -38 77 -56 131 -17 55 -39 105 -49 112 -9 7 -22 32 -29 55 -7 23 -22
49 -34 57 -17 12 -18 16 -7 20 17 7 142 12 229 10 l65 -1 32 -80z"/>
<path d="M1310 4071 c0 -11 -4 -22 -9 -26 -5 -3 -13 -20 -17 -38 -3 -17 -12
-45 -19 -62 -21 -50 -44 -127 -50 -170 -4 -22 -10 -49 -15 -60 -13 -30 -29
-227 -22 -263 l7 -30 40 14 c22 7 47 14 55 14 8 0 31 5 51 10 31 9 41 20 72
81 22 42 37 85 37 106 0 26 5 36 20 40 15 4 27 29 51 107 21 67 40 108 55 121
13 12 24 30 24 40 0 32 37 84 65 91 14 3 25 10 25 15 0 12 -47 17 -217 24
-149 6 -153 6 -153 -14z m202 -7 l105 -7 -23 -41 c-13 -23 -24 -48 -24 -56 0
-8 -8 -20 -18 -27 -12 -7 -32 -53 -53 -117 -26 -80 -39 -107 -56 -115 -18 -8
-23 -19 -23 -48 0 -23 -13 -63 -32 -101 -29 -56 -37 -64 -73 -73 -22 -6 -56
-14 -74 -19 -19 -5 -37 -7 -40 -4 -8 8 -2 126 9 194 16 98 38 194 60 255 11
33 26 76 32 95 23 78 14 76 210 64z"/>
<path d="M4527 3834 c-5 -5 -4 -144 7 -713 1 -50 5 -76 14 -78 9 -4 12 49 13
239 1 134 3 288 4 343 2 72 -2 108 -12 129 -8 16 -13 42 -11 57 4 28 -1 36
-15 23z"/>
<path d="M436 3743 c-10 -11 -7 -243 4 -243 6 0 10 10 11 23 0 12 2 66 5 119
4 87 -2 119 -20 101z"/>
<path d="M2497 3653 c-10 -18 -87 -262 -87 -277 0 -8 -11 -23 -25 -32 -28 -18
-50 -17 -220 11 -274 45 -335 53 -340 45 -3 -4 12 -27 33 -51 62 -72 232 -316
232 -333 0 -2 15 -30 33 -63 88 -155 163 -367 198 -558 16 -88 20 -150 20
-310 -1 -281 -33 -523 -94 -703 -20 -57 -24 -85 -20 -132 l6 -59 46 -3 c46 -3
46 -3 49 -42 4 -42 -8 -56 -45 -56 -30 0 -53 26 -53 61 0 16 -2 29 -5 29 -16
0 -65 -32 -65 -43 0 -18 254 -187 281 -187 14 0 86 38 144 76 95 63 105 73
105 108 0 42 16 56 61 56 l36 0 7 65 c5 49 3 72 -9 94 -41 81 -89 338 -106
572 -28 387 31 685 201 1016 75 146 171 295 262 404 64 77 74 75 -177 34 -283
-47 -303 -49 -328 -38 -20 9 -32 37 -71 160 -47 145 -59 173 -69 156z m55
-177 c35 -112 46 -137 69 -150 31 -18 72 -20 132 -6 75 17 378 62 384 57 2 -3
-18 -34 -45 -69 -198 -254 -331 -530 -402 -832 -63 -265 -33 -798 60 -1083 23
-72 28 -103 23 -138 -5 -43 -7 -45 -38 -45 -40 0 -63 -24 -67 -74 -3 -33 -8
-41 -45 -62 -23 -13 -60 -36 -82 -52 -82 -60 -90 -60 -180 -6 -45 26 -81 51
-81 56 0 4 11 8 24 8 35 0 49 24 43 72 -6 46 -18 58 -63 58 -30 0 -31 2 -37
49 -4 38 1 67 23 135 79 236 115 695 75 966 -46 320 -203 662 -438 959 l-51
64 44 -6 c45 -7 87 -14 270 -43 174 -28 192 -28 222 -4 22 16 36 49 68 151 23
71 43 129 45 129 2 0 23 -60 47 -134z m-342 -2341 c0 -8 -4 -15 -10 -15 -5 0
-10 7 -10 15 0 8 5 15 10 15 6 0 10 -7 10 -15z"/>
<path d="M430 3415 c0 -14 5 -25 10 -25 6 0 10 11 10 25 0 14 -4 25 -10 25 -5
0 -10 -11 -10 -25z"/>
<path d="M4213 3183 c-19 -4 -21 -8 -13 -29 6 -14 10 -42 10 -63 0 -42 6 -52
26 -44 10 4 14 24 14 74 0 38 -3 68 -7 68 -5 -1 -18 -4 -30 -6z"/>
<path d="M720 3155 c0 -17 9 -29 31 -40 36 -19 38 -18 46 29 l6 36 -42 0 c-37
0 -41 -2 -41 -25z m58 -7 c-3 -7 -11 -13 -18 -13 -7 0 -15 6 -17 13 -3 7 4 12
17 12 13 0 20 -5 18 -12z"/>
<path d="M720 2971 c0 -23 9 -31 26 -24 21 8 17 30 -6 36 -14 4 -20 0 -20 -12z"/>
<path d="M4142 2830 c-33 -31 -88 -153 -235 -520 -116 -287 -221 -548 -312
-770 -49 -119 -64 -149 -84 -159 -11 -6 -67 -11 -125 -11 -58 0 -106 -3 -106
-7 0 -5 93 -39 207 -76 198 -66 207 -68 223 -50 10 10 65 97 123 193 57 96
135 225 172 285 37 61 88 144 113 185 61 102 91 148 129 196 l33 41 0 297 c0
294 0 297 -24 344 -14 28 -36 53 -51 60 -34 16 -38 15 -63 -8z m59 -13 c9 -7
26 -28 38 -47 20 -34 21 -47 21 -332 l0 -297 -29 -33 c-29 -33 -168 -257 -393
-633 -66 -110 -128 -208 -137 -217 -15 -16 -25 -14 -176 37 l-160 55 65 0 c36
0 76 6 90 13 31 15 61 85 325 742 249 617 250 620 286 677 32 50 43 56 70 35z"/>
<path d="M810 2823 c-35 -13 -72 -47 -90 -83 -18 -36 -20 -60 -20 -292 l0
-253 25 -37 c14 -20 25 -40 25 -44 0 -4 9 -17 20 -29 26 -28 70 -112 70 -135
0 -11 34 -72 76 -137 43 -65 116 -177 163 -250 47 -73 109 -169 136 -213 28
-45 60 -93 71 -108 l22 -26 148 46 c82 26 168 52 191 58 22 6 52 19 65 30 l23
19 -112 1 c-61 0 -123 4 -137 10 -24 9 -59 64 -76 120 -5 14 -38 97 -75 185
-101 246 -159 390 -205 510 -156 409 -210 539 -253 602 -21 32 -36 37 -67 26z
m62 -56 c38 -59 83 -168 213 -508 62 -162 137 -353 167 -425 31 -71 78 -187
107 -259 64 -163 89 -207 121 -216 14 -4 63 -8 110 -9 l85 -1 -123 -35 c-68
-19 -135 -40 -150 -48 -15 -7 -42 -17 -59 -21 -32 -6 -33 -6 -110 115 -43 67
-112 174 -154 238 -184 284 -219 339 -219 351 0 15 -51 124 -61 131 -4 3 -24
32 -43 65 l-36 59 0 251 c0 245 1 253 23 286 18 28 76 69 97 69 3 0 17 -19 32
-43z"/>
<path d="M2146 1353 c-20 -10 -42 -13 -73 -9 -41 5 -43 4 -33 -13 17 -33 12
-128 -10 -171 -20 -38 -27 -65 -12 -45 12 18 85 71 122 90 19 10 36 19 38 20
2 2 -2 22 -8 45 -8 29 -8 51 -1 71 5 16 9 29 8 29 -1 -1 -15 -8 -31 -17z"/>
<path d="M2846 1358 c8 -12 7 -92 -1 -117 -3 -12 9 -23 48 -44 28 -15 67 -41
85 -58 38 -35 38 -35 12 22 -21 48 -27 138 -10 170 10 17 8 18 -34 13 -30 -5
-54 -2 -75 9 -17 9 -28 11 -25 5z"/>
<path d="M2814 1109 c-10 -12 -32 -28 -48 -36 -16 -8 -39 -24 -50 -35 -12 -11
-34 -27 -51 -34 -16 -8 -51 -29 -77 -47 -130 -89 -139 -91 -208 -47 -25 16
-63 39 -84 51 -22 12 -46 28 -54 35 -7 8 -17 14 -22 14 -4 0 -31 18 -59 40
-46 36 -56 40 -87 34 l-36 -7 53 -30 c30 -16 83 -47 119 -67 36 -21 94 -53
130 -72 36 -19 65 -41 65 -49 0 -17 -41 -25 -58 -11 -7 6 -93 56 -191 111
-210 118 -194 117 -361 41 -22 -10 -65 -42 -96 -72 -30 -29 -46 -45 -35 -36
29 23 71 38 109 38 20 0 75 -24 147 -63 63 -34 141 -76 172 -92 33 -17 58 -37
58 -45 0 -16 -129 -84 -220 -116 -75 -26 -164 -42 -189 -32 -20 7 -22 6 -12
-6 17 -21 67 -30 99 -18 15 5 47 15 72 22 25 7 102 38 171 70 118 54 127 56
152 43 15 -7 27 -19 27 -26 0 -18 -205 -110 -339 -153 -95 -30 -204 -12 -265
44 l-28 27 16 -32 c34 -67 233 -287 347 -384 l47 -39 98 51 c55 28 105 56 111
61 7 6 45 26 85 45 40 19 80 41 89 49 8 7 24 15 36 17 12 1 28 8 36 15 8 7 34
23 58 35 24 13 54 29 66 37 19 12 26 12 50 0 15 -8 37 -22 48 -31 11 -10 47
-32 80 -49 33 -18 83 -48 112 -66 55 -37 67 -39 122 -25 20 5 86 22 146 36
108 27 261 79 280 96 16 16 53 10 58 -8 2 -10 3 -7 1 7 -1 14 7 40 18 58 11
18 18 35 15 38 -3 3 -8 -4 -12 -15 -7 -23 -30 -28 -39 -8 -2 6 -4 1 -3 -12 3
-36 -34 -51 -123 -51 -115 1 -176 18 -372 109 -95 44 -108 55 -80 70 14 7 43
-2 128 -40 120 -55 193 -83 201 -76 2 3 -11 10 -29 16 -91 30 -233 99 -236
114 -3 13 20 28 90 60 167 78 174 80 213 73 44 -9 106 -63 142 -123 38 -65 39
-45 2 28 -81 162 -210 317 -335 402 -50 35 -50 35 -75 16 -13 -10 -29 -19 -35
-19 -6 0 -22 -8 -35 -19 -13 -10 -80 -49 -149 -86 -69 -37 -148 -80 -177 -96
-50 -29 -54 -29 -83 -14 -16 8 -30 19 -30 23 0 4 39 27 87 52 73 38 302 167
311 174 4 4 -50 56 -58 56 -4 0 -15 -9 -26 -21z m-314 -287 c42 -34 -3 -58
-48 -26 -18 13 -21 19 -11 30 15 19 32 18 59 -4z"/>
<path d="M1712 849 c-44 -28 -84 -107 -76 -148 6 -29 9 -31 54 -31 30 0 52 -6
60 -15 7 -8 24 -15 39 -15 44 0 241 73 241 90 0 6 -124 77 -207 119 -53 26
-70 26 -111 0z m179 -56 c60 -32 105 -61 100 -66 -14 -14 -172 -67 -199 -67
-13 0 -30 7 -38 15 -9 8 -33 15 -54 15 -50 0 -59 24 -31 78 23 46 65 82 94 82
11 0 68 -26 128 -57z"/>
<path d="M1571 684 c0 -11 3 -14 6 -6 3 7 2 16 -1 19 -3 4 -6 -2 -5 -13z"/>
<path d="M3182 651 c-85 -37 -91 -45 -50 -66 87 -44 162 -66 205 -59 33 5 43
11 43 24 0 23 -88 117 -115 124 -11 2 -48 -8 -83 -23z m90 -2 c29 -13 90 -88
82 -100 -14 -23 -122 3 -199 48 -18 11 -15 14 35 37 30 14 56 25 57 25 1 1 12
-4 25 -10z"/>
<path d="M3456 540 c3 -14 11 -32 16 -40 6 -10 7 -7 2 10 -3 14 -11 32 -16 40
-6 10 -7 7 -2 -10z"/>
<path d="M3541 534 c0 -11 3 -14 6 -6 3 7 2 16 -1 19 -3 4 -6 -2 -5 -13z"/>
<path d="M3258 463 c7 -3 16 -2 19 1 4 3 -2 6 -13 5 -11 0 -14 -3 -6 -6z"/>
<path d="M3303 453 c9 -2 23 -2 30 0 6 3 -1 5 -18 5 -16 0 -22 -2 -12 -5z"/>
<path d="M3521 184 c0 -11 3 -14 6 -6 3 7 2 16 -1 19 -3 4 -6 -2 -5 -13z"/>
</g>
</svg>
